<svg width="256" height="256" viewBox="0 0 256 256" fill="none" xmlns="http://www.w3.org/2000/svg">
    <defs>
        <radialGradient id="grad1" cx="50%" cy="50%" r="50%" fx="50%" fy="50%">
            <stop offset="0%" style="stop-color:#1e293b;stop-opacity:1" />
            <stop offset="100%" style="stop-color:#0f172a;stop-opacity:1" />
        </radialGradient>
        <filter id="glow">
            <feGaussianBlur stdDeviation="3.5" result="coloredBlur"/>
            <feMerge>
                <feMergeNode in="coloredBlur"/>
                <feMergeNode in="SourceGraphic"/>
            </feMerge>
        </filter>
    </defs>
    <circle cx="128" cy="128" r="120" fill="url(#grad1)" filter="url(#glow)"/>
    <circle cx="128" cy="128" r="118" fill="transparent" stroke="#334155" stroke-width="2"/>
    <!-- Stars -->
    <circle cx="60" cy="70" r="3" fill="white" opacity="0.8"/>
    <circle cx="190" cy="200" r="3" fill="white" opacity="0.8"/>
    <circle cx="100" cy="210" r="2" fill="white" opacity="0.7"/>
    <circle cx="210" cy="90" r="2" fill="white" opacity="0.7"/>
    <circle cx="80" cy="150" r="1.5" fill="white" opacity="0.6"/>
    <circle cx="170" cy="120" r="1.5" fill="white" opacity="0.6"/>
    <circle cx="50" cy="180" r="1" fill="white" opacity="0.5"/>
    <circle cx="200" cy="50" r="1" fill="white" opacity="0.5"/>
    <g style="filter: drop-shadow(0 0 8px rgba(255, 255, 255, 0.3));">
        <g transform="translate(128, 128) scale(0.7) translate(-128, -128)">
  <!-- Simple, recognizable AWS Lambda - smaller size -->
  <!-- Lambda symbol (λ) -->
  <path d="M100 180 L100 160 L115 90 L130 90 L145 160 L160 160 L140 90 L125 90 L108 180 Z" fill="#FF9900"/>
  
  <!-- Lambda base -->
  <path d="M95 180 L95 170 L100 170 L100 180 Z" fill="#FF9900"/>
  <path d="M160 180 L160 170 L165 170 L165 180 Z" fill="#FF9900"/>

  <!-- AWS text -->
  <text x="128" y="200" font-family="Arial, sans-serif" font-size="16" font-weight="bold" fill="#FF9900" text-anchor="middle">AWS</text>
  
  <!-- Extremely subtle glow effect (5% drift) -->
  <circle cx="128" cy="128" r="120" fill="none" stroke="#FF9900" stroke-width="0.5" opacity="0.05" />
</g>
    </g>
</svg>
