<svg width="256" height="256" viewBox="0 0 256 256" fill="none" xmlns="http://www.w3.org/2000/svg">
    <defs>
        <radialGradient id="grad1" cx="50%" cy="50%" r="50%" fx="50%" fy="50%">
            <stop offset="0%" style="stop-color:#1e293b;stop-opacity:1" />
            <stop offset="100%" style="stop-color:#0f172a;stop-opacity:1" />
        </radialGradient>
        <filter id="glow">
            <feGaussianBlur stdDeviation="3.5" result="coloredBlur"/>
            <feMerge>
                <feMergeNode in="coloredBlur"/>
                <feMergeNode in="SourceGraphic"/>
            </feMerge>
        </filter>
    </defs>
    <circle cx="128" cy="128" r="120" fill="url(#grad1)" filter="url(#glow)"/>
    <circle cx="128" cy="128" r="118" fill="transparent" stroke="#334155" stroke-width="2"/>
    <!-- Stars -->
    <circle cx="60" cy="70" r="3" fill="white" opacity="0.8"/>
    <circle cx="190" cy="200" r="3" fill="white" opacity="0.8"/>
    <circle cx="100" cy="210" r="2" fill="white" opacity="0.7"/>
    <circle cx="210" cy="90" r="2" fill="white" opacity="0.7"/>
    <circle cx="80" cy="150" r="1.5" fill="white" opacity="0.6"/>
    <circle cx="170" cy="120" r="1.5" fill="white" opacity="0.6"/>
    <circle cx="50" cy="180" r="1" fill="white" opacity="0.5"/>
    <circle cx="200" cy="50" r="1" fill="white" opacity="0.5"/>
    <g style="filter: drop-shadow(0 0 8px rgba(255, 255, 255, 0.3));">
        <g transform="translate(128, 128) scale(0.7) translate(-128, -128)">
  <!-- AUTHENTIC AWS Lambda logo - lambda symbol with AWS branding -->
  <defs>
    <radialGradient id="lambdaGlow" cx="50%" cy="50%" r="60%">
      <stop offset="0%" style="stop-color:#FF9900;stop-opacity:0.1" />
      <stop offset="100%" style="stop-color:#FF9900;stop-opacity:0" />
    </radialGradient>
  </defs>
  
  <!-- Lambda symbol (λ) - authentic design -->
  <path fill="#FF9900" d="M85 70 L115 70 L135 130 L165 70 L195 70 L155 150 L175 200 L145 200 L130 165 L115 200 L85 200 L105 150 L75 70 L85 70 Z"/>
  
  <!-- Lambda base lines -->
  <path fill="#FF9900" d="M75 200 L75 190 L85 190 L85 200 Z"/>
  <path fill="#FF9900" d="M195 200 L195 190 L205 190 L205 200 Z"/>
  
  <!-- AWS branding -->
  <rect x="80" y="210" width="140" height="20" rx="3" fill="#232F3E"/>
  <text x="150" y="225" font-family="Arial, sans-serif" font-size="12" font-weight="bold" fill="#FF9900" text-anchor="middle">AWS Lambda</text>
  
  <!-- Function execution flow indicators -->
  <circle cx="60" cy="80" r="4" fill="#FF9900" opacity="0.8">
    <animate attributeName="opacity" values="0.8;0.3;0.8" dur="2s" repeatCount="indefinite"/>
  </circle>
  <path d="M64 80 L71 80" stroke="#FF9900" stroke-width="2" opacity="0.6">
    <animate attributeName="opacity" values="0.6;0.2;0.6" dur="2s" repeatCount="indefinite"/>
  </path>
  
  <circle cx="220" cy="170" r="4" fill="#FF9900" opacity="0.8">
    <animate attributeName="opacity" values="0.3;0.8;0.3" dur="2s" repeatCount="indefinite"/>
  </circle>
  <path d="M213 170 L216 170" stroke="#FF9900" stroke-width="2" opacity="0.6">
    <animate attributeName="opacity" values="0.2;0.6;0.2" dur="2s" repeatCount="indefinite"/>
  </path>
  
  <!-- Minimal psychedelic glow effect (10% drift) -->
  <circle cx="128" cy="128" r="120" fill="url(#lambdaGlow)"/>
  <circle cx="128" cy="128" r="120" fill="none" stroke="#FF9900" stroke-width="1" opacity="0.1" />
</g>
    </g>
</svg>
