<svg width="64" height="64" viewBox="0 0 64 64" xmlns="http://www.w3.org/2000/svg">
  
  <defs>
    <radialGradient id="bg-gradient" cx="50%" cy="50%" r="50%" fx="50%" fy="50%">
      <stop offset="0%" style="stop-color:#4a5568;stop-opacity:1" />
      <stop offset="100%" style="stop-color:#2d3748;stop-opacity:1" />
    </radialGradient>
    <filter id="drop-shadow" x="-50%" y="-50%" width="200%" height="200%">
      <feDropShadow dx="1" dy="1" stdDeviation="1.5" flood-color="#000000" flood-opacity="0.6"/>
    </filter>
     <filter id="glow" x="-50%" y="-50%" width="200%" height="200%">
      <feGaussianBlur stdDeviation="2" result="coloredBlur"/>
      <feMerge>
        <feMergeNode in="coloredBlur"/>
        <feMergeNode in="SourceGraphic"/>
      </feMerge>
    </filter>
  </defs>
  <circle cx="32" cy="32" r="30" fill="url(#bg-gradient)" />
  <g opacity="0.7">
    <circle cx="10" cy="20" r="1.5" fill="white" opacity="0.8"/><circle cx="55" cy="40" r="1" fill="white" opacity="0.6"/><circle cx="20" cy="50" r="0.8" fill="white" opacity="0.5"/><circle cx="45" cy="15" r="1.2" fill="white" opacity="0.7"/><circle cx="30" cy="10" r="0.5" fill="white" opacity="0.4"/><circle cx="5" cy="45" r="0.7" fill="white" opacity="0.5"/><circle cx="58" cy="12" r="0.6" fill="white" opacity="0.9"/>
  </g>
  <circle cx="32" cy="32" r="29" fill="none" stroke="#8e81f4" stroke-width="1.5" filter="url(#glow)" />

  <g filter="url(#drop-shadow)">
    <g transform="translate(16, 16) scale(0.125)">
      <path d="M42.8 131.5c-1.3-2-2.9-3.9-4.8-5.5-3-2.6-6.4-4.5-10-5.5-2.2-.6-4.5-1-6.7-1.1-4.2-.2-8.3.7-12.1 2.5-3.1 1.4-5.9 3.5-8.2 6.2-. .2-.2.3-.3.5-3.2-1-6.3-2.1-9.2-3.4-2.2-1-4.3-2-6.2-3.2-4-2.4-7.4-5.3-10-9-1.3-1.8-2.4-3.7-3.2-5.7-.8-1.9-1.2-3.9-1.3-5.9-.1-2.6.2-5.2 1-7.7.7-2.5 1.9-4.8 3.4-6.9 1.5-2.1 3.3-4 5.3-5.6 2-1.6 4.1-3 6.4-4.1 2.3-1.1 4.7-2 7.2-2.6 2.5-.6 5-1 7.6-1.1 4.8-.3 9.5.5 14 2.4 3.7 1.5 7.1 3.7 10.1 6.5.2.2.3.4.5.6 1-3.2 2.2-6.2 3.5-9.2 1-2.2 2-4.3 3.2-6.2 2.4-4 5.3-7.4 9-10 1.8-1.3 3.7-2.4 5.7-3.2 1.9-.8 3.9-1.2 5.9-1.3 2.6-.1 5.2.2 7.7 1 2.5.7 4.8 1.9 6.9 3.4 2.1 1.5 4 3.3 5.6 5.3 1.6 2 3 4.1 4.1 6.4 1.1 2.3 2 4.7 2.6 7.2.6 2.5 1 5 1.1 7.6.3 4.8-.5 9.5-2.4 14-1.5 3.7-3.7 7.1-6.5 10.1-.2.2-.4.3-.6.5 3.2 1 6.2 2.2 9.2 3.5 2.2 1 4.3 2 6.2 3.2 4 2.4 7.4 5.3 10 9 1.3 1.8 2.4 3.7 3.2 5.7.8 1.9 1.2 3.9 1.3 5.9.1 2.6-.2 5.2-1 7.7-.7 2.5-1.9 4.8-3.4 6.9-1.5 2.1-3.3 4-5.3 5.6-2 1.6-4.1 3-6.4 4.1-2.3 1.1-4.7 2-7.2 2.6-2.5.6-5 1-7.6 1.1-4.8.3-9.5-.5-14-2.4-3.7-1.5-7.1-3.7-10.1-6.5-.2-.2-.3-.4-.5-.6-1 3.2-2.2 6.2-3.5 9.2-1 2.2-2 4.3-3.2 6.2-2.4 4-5.3 7.4-9 10-1.8 1.3-3.7 2.4-5.7 3.2-1.9.8-3.9 1.2-5.9 1.3-2.6.1-5.2-.2-7.7-1-2.5-.7-4.8-1.9-6.9-3.4-2.1-1.5-4-3.3-5.6-5.3-1.6-2-3-4.1-4.1-6.4-1.1-2.3-2-4.7-2.6-7.2-.6-2.5-1-5-1.1-7.6Z" fill="#232F3E"/>
    </g>
  </g>
</svg>
