<svg width="256" height="256" viewBox="0 0 256 256" fill="none" xmlns="http://www.w3.org/2000/svg">
    <defs>
        <radialGradient id="grad1" cx="50%" cy="50%" r="50%" fx="50%" fy="50%">
            <stop offset="0%" style="stop-color:#1e293b;stop-opacity:1" />
            <stop offset="100%" style="stop-color:#0f172a;stop-opacity:1" />
        </radialGradient>
        <filter id="glow">
            <feGaussianBlur stdDeviation="3.5" result="coloredBlur"/>
            <feMerge>
                <feMergeNode in="coloredBlur"/>
                <feMergeNode in="SourceGraphic"/>
            </feMerge>
        </filter>
    </defs>
    <circle cx="128" cy="128" r="120" fill="url(#grad1)" filter="url(#glow)"/>
    <circle cx="128" cy="128" r="118" fill="transparent" stroke="#334155" stroke-width="2"/>
    <!-- Stars -->
    <circle cx="60" cy="70" r="3" fill="white" opacity="0.8"/>
    <circle cx="190" cy="200" r="3" fill="white" opacity="0.8"/>
    <circle cx="100" cy="210" r="2" fill="white" opacity="0.7"/>
    <circle cx="210" cy="90" r="2" fill="white" opacity="0.7"/>
    <circle cx="80" cy="150" r="1.5" fill="white" opacity="0.6"/>
    <circle cx="170" cy="120" r="1.5" fill="white" opacity="0.6"/>
    <circle cx="50" cy="180" r="1" fill="white" opacity="0.5"/>
    <circle cx="200" cy="50" r="1" fill="white" opacity="0.5"/>
    <g style="filter: drop-shadow(0 0 8px rgba(255, 255, 255, 0.3));">
        <g transform="translate(128, 128) scale(0.8) translate(-128, -128)">
  <!-- AUTHENTIC AWS logo - exact brand reproduction -->
  <!-- AWS Text with precise typography -->
  <path fill="#FF9900" d="M50.5 85.5L67.8 85.5L73.4 102.8L79.0 85.5L96.3 85.5L84.1 110.1L96.6 134.7L79.1 134.7L73.4 117.2L67.7 134.7L50.2 134.7L62.7 110.1L50.5 85.5Z"/>
  <path fill="#FF9900" d="M107.8 85.5L131.8 85.5L143.5 109.9L154.8 85.5L174.2 85.5L154.4 122.2L154.4 134.7L140.8 134.7L140.8 125.1L139.4 122.2L125.2 97.8L125.2 134.7L111.6 134.7L111.6 97.8L107.8 85.5Z"/>
  <path fill="#FF9900" d="M185.5 106.2C186.7 103.8 188.7 102.1 191.1 101.2C193.5 100.3 196.1 99.9 198.7 100C201.6 99.9 204.5 100.4 207.2 101.4L207.2 111.8C205.2 110.9 203.0 110.4 200.8 110.3C198.8 110.2 196.8 110.6 195.0 111.4C193.4 112.1 192.1 113.3 191.2 114.8L191.2 134.7L177.6 134.7L177.6 101.4L189.8 101.4L189.8 106.2L185.5 106.2Z"/>
  
  <!-- AWS iconic smile arrow -->
  <path fill="#FF9900" d="M62.8 155.2C85.6 171.8 115.2 180.7 144.3 180.7C184.2 180.7 221.4 166.3 249.8 141.2C252.3 139.0 249.9 135.7 247.0 137.4C215.1 155.4 177.2 165.3 138.5 165.3C112.0 165.3 86.6 160.1 63.6 150.3C60.2 149.0 57.4 152.9 62.8 155.2Z"/>
  
  <!-- Extremely subtle glow effect (5% drift) -->
  <circle cx="128" cy="128" r="120" fill="none" stroke="#FF9900" stroke-width="0.5" opacity="0.05" />
</g>
    </g>
</svg>
