<svg width="256" height="256" viewBox="0 0 256 256" fill="none" xmlns="http://www.w3.org/2000/svg">
    <defs>
        <radialGradient id="grad1" cx="50%" cy="50%" r="50%" fx="50%" fy="50%">
            <stop offset="0%" style="stop-color:#1e293b;stop-opacity:1" />
            <stop offset="100%" style="stop-color:#0f172a;stop-opacity:1" />
        </radialGradient>
        <filter id="glow">
            <feGaussianBlur stdDeviation="3.5" result="coloredBlur"/>
            <feMerge>
                <feMergeNode in="coloredBlur"/>
                <feMergeNode in="SourceGraphic"/>
            </feMerge>
        </filter>
    </defs>
    <circle cx="128" cy="128" r="120" fill="url(#grad1)" filter="url(#glow)"/>
    <circle cx="128" cy="128" r="118" fill="transparent" stroke="#334155" stroke-width="2"/>
    <!-- Stars -->
    <circle cx="60" cy="70" r="3" fill="white" opacity="0.8"/>
    <circle cx="190" cy="200" r="3" fill="white" opacity="0.8"/>
    <circle cx="100" cy="210" r="2" fill="white" opacity="0.7"/>
    <circle cx="210" cy="90" r="2" fill="white" opacity="0.7"/>
    <circle cx="80" cy="150" r="1.5" fill="white" opacity="0.6"/>
    <circle cx="170" cy="120" r="1.5" fill="white" opacity="0.6"/>
    <circle cx="50" cy="180" r="1" fill="white" opacity="0.5"/>
    <circle cx="200" cy="50" r="1" fill="white" opacity="0.5"/>
    <g style="filter: drop-shadow(0 0 8px rgba(255, 255, 255, 0.3));">
        <g transform="translate(128, 128) scale(1.25) translate(-64, -64)">
  <path d="M18.8 77.2c-.6-1-1.3-1.8-2.2-2.5-1.4-1.2-3-2.1-4.6-2.5-1-.2-2.1-.5-3.1-.5-2 0-3.8.3-5.6.9-1.4.7-2.7 1.6-3.8 2.9.1-1.5-.1-2.9-.4-4.3-.4-1.6-1-3.2-1.7-4.7-.8-1.5-1.8-2.9-2.9-4.2-1.9-2-4.1-3.5-6.6-4.7-1.1-.5-2.2-.9-3.3-1.2-1.1-.3-2.3-.5-3.5-.5-2.2 0-4.4.4-6.5 1.1-1.7.6-3.3 1.5-4.7 2.7.1-.1.2-.2.2-.3.4-1.5.8-2.9 1.3-4.3.4-1.6 1-3.2 1.7-4.7.8-1.5 1.8-2.9 2.9-4.2 1.9-2 4.1-3.5 6.6-4.7 1.1-.5 2.2-.9 3.3-1.2 1.1-.3 2.3-.5 3.5-.5 2.2 0 4.4.4 6.5 1.1 1.7.6 3.3 1.5 4.7 2.7.2.2.3.4.4.5-1.5-.4-2.9-1-4.3-1.7-1.6-.4-3.2-1-4.7-1.7-1.5-.8-2.9-1.8-4.2-2.9-2-1.9-3.5-4.1-4.7-6.6-.5-1.1-.9-2.2-1.2-3.3-.3-1.1-.5-2.3-.5-3.5 0-2.2.4-4.4 1.1-6.5.6-1.7 1.5-3.3 2.7-4.7.2-.2.4-.3.5-.4 1.5.4 2.9.8 4.3 1.3 1.6.4 3.2 1 4.7 1.7 1.5.8 2.9 1.8 4.2 2.9 2 1.9 3.5 4.1 4.7 6.6.5 1.1.9 2.2 1.2 3.3.3 1.1.5 2.3.5 3.5 0 2.2-.4 4.4-1.1 6.5-.6 1.7-1.5 3.3-2.7 4.7-.2.2-.3.4-.4.5 1.5.4 2.9 1 4.3 1.7 1.6.4 3.2 1 4.7 1.7 1.5.8 2.9 1.8 4.2 2.9 2 1.9 3.5 4.1 4.7 6.6.5 1.1.9 2.2 1.2 3.3.3 1.1.5 2.3.5 3.5 0 2.2-.4 4.4-1.1 6.5-.6 1.7-1.5 3.3-2.7 4.7-.2.2-.4.3-.5.4-1.5-.4-2.9-.8-4.3-1.3-1.6-.4-3.2-1-4.7-1.7-1.5-.8-2.9-1.8-4.2-2.9-2-1.9-3.5-4.1-4.7-6.6-.5-1.1-.9-2.2-1.2-3.3-.3-1.1-.5-2.3-.5-3.5z" fill="#ff9900"/><path d="M125.6 70.3c0-11.3-9.1-20.4-20.4-20.4s-20.4 9.1-20.4 20.4 9.1 20.4 20.4 20.4 20.4-9.1 20.4-20.4zm-4.7 15c-1.2-1-1.9-2.3-1.9-3.8 0-1.2.5-2.4 1.4-3.3l.5-.6-2.5-1.8c-1.3-.9-2.8-1.4-4.3-1.4h-5.2c-3.1 0-5.9 1.4-7.8 3.8-1.2 1.5-1.9 3.4-1.9 5.3 0 4.3 3.5 7.8 7.8 7.8h4.5c.8 0 1.5.2 2.2.5l.6.3 1.8-2.5v.1zm-13-16.1c-1.2-1-1.9-2.3-1.9-3.8 0-1.2.5-2.4 1.4-3.3l.5-.6-2.5-1.8c-1.3-.9-2.8-1.4-4.3-1.4h-5.2c-3.1 0-5.9 1.4-7.8 3.8-1.2 1.5-1.9 3.4-1.9 5.3 0 4.3 3.5 7.8 7.8 7.8h4.5c.8 0 1.5.2 2.2.5l.6.3 1.8-2.5v.1z" fill="#232f3e"/>
</g>
    </g>
</svg>
