<svg width="256" height="256" viewBox="0 0 256 256" fill="none" xmlns="http://www.w3.org/2000/svg">
    <defs>
        <radialGradient id="grad1" cx="50%" cy="50%" r="50%" fx="50%" fy="50%">
            <stop offset="0%" style="stop-color:#1e293b;stop-opacity:1" />
            <stop offset="100%" style="stop-color:#0f172a;stop-opacity:1" />
        </radialGradient>
        <filter id="glow">
            <feGaussianBlur stdDeviation="3.5" result="coloredBlur"/>
            <feMerge>
                <feMergeNode in="coloredBlur"/>
                <feMergeNode in="SourceGraphic"/>
            </feMerge>
        </filter>
    </defs>
    <circle cx="128" cy="128" r="120" fill="url(#grad1)" filter="url(#glow)"/>
    <circle cx="128" cy="128" r="118" fill="transparent" stroke="#334155" stroke-width="2"/>
    <!-- Stars -->
    <circle cx="60" cy="70" r="3" fill="white" opacity="0.8"/>
    <circle cx="190" cy="200" r="3" fill="white" opacity="0.8"/>
    <circle cx="100" cy="210" r="2" fill="white" opacity="0.7"/>
    <circle cx="210" cy="90" r="2" fill="white" opacity="0.7"/>
    <circle cx="80" cy="150" r="1.5" fill="white" opacity="0.6"/>
    <circle cx="170" cy="120" r="1.5" fill="white" opacity="0.6"/>
    <circle cx="50" cy="180" r="1" fill="white" opacity="0.5"/>
    <circle cx="200" cy="50" r="1" fill="white" opacity="0.5"/>
    <g style="filter: drop-shadow(0 0 8px rgba(255, 255, 255, 0.3));">
        <g transform="translate(128, 128) scale(0.8) translate(-128, -128)">
  <!-- Authentic Bootstrap logo -->
  <rect width="256" height="256" fill="#7952B3" rx="40"/>
  
  <!-- Bootstrap "B" -->
  <path fill="#FFF" d="M81.244 96h55.6c28.864 0 46.208-14.528 46.208-38.336 0-17.632-12.176-30.656-30.464-32.544v-1.6c13.312-2.24 23.712-14.88 23.712-29.056C176.3 17.28 161.42 0 139.244 0H81.244v96zM102.3 20.96V40.96h28.48c15.568 0 24.672 7.312 24.672 19.792 0 12.832-9.664 19.68-28.224 19.68H102.3V20.96zM102.3 60.192V75.84h29.152c19.776 0 30.192 7.408 30.192 21.568 0 14.336-10.032 22.032-28.976 22.032H102.3V60.192z"/>
  
  <!-- Extremely subtle glow effect (5% drift) -->
  <circle cx="128" cy="128" r="120" fill="none" stroke="#7952B3" stroke-width="0.5" opacity="0.05" />
</g>
    </g>
</svg>
