<svg width="64" height="64" viewBox="0 0 64 64" xmlns="http://www.w3.org/2000/svg">
  
  <defs>
    <radialGradient id="bg-gradient" cx="50%" cy="50%" r="50%" fx="50%" fy="50%">
      <stop offset="0%" style="stop-color:#4a5568;stop-opacity:1" />
      <stop offset="100%" style="stop-color:#2d3748;stop-opacity:1" />
    </radialGradient>
    <filter id="drop-shadow" x="-50%" y="-50%" width="200%" height="200%">
      <feDropShadow dx="1" dy="1" stdDeviation="1.5" flood-color="#000000" flood-opacity="0.6"/>
    </filter>
     <filter id="glow" x="-50%" y="-50%" width="200%" height="200%">
      <feGaussianBlur stdDeviation="2" result="coloredBlur"/>
      <feMerge>
        <feMergeNode in="coloredBlur"/>
        <feMergeNode in="SourceGraphic"/>
      </feMerge>
    </filter>
  </defs>
  <circle cx="32" cy="32" r="30" fill="url(#bg-gradient)" />
  <g opacity="0.7">
    <circle cx="10" cy="20" r="1.5" fill="white" opacity="0.8"/><circle cx="55" cy="40" r="1" fill="white" opacity="0.6"/><circle cx="20" cy="50" r="0.8" fill="white" opacity="0.5"/><circle cx="45" cy="15" r="1.2" fill="white" opacity="0.7"/><circle cx="30" cy="10" r="0.5" fill="white" opacity="0.4"/><circle cx="5" cy="45" r="0.7" fill="white" opacity="0.5"/><circle cx="58" cy="12" r="0.6" fill="white" opacity="0.9"/>
  </g>
  <circle cx="32" cy="32" r="29" fill="none" stroke="#8e81f4" stroke-width="1.5" filter="url(#glow)" />

  <g filter="url(#drop-shadow)">
    <g transform="translate(16, 16) scale(0.125)">
      <circle cx="128" cy="128" r="80" fill="#6C47FF"/>
      <path fill="#fff" d="M104.3,158.6a36.4,36.4,0,0,1-23.5-9.6,8,8,0,0,1,9.6-12.8,20.4,20.4,0,0,0,13.9,5.7,20.7,20.7,0,0,0,14.8-6.1,21.3,21.3,0,0,0,6.1-14.8,20.7,20.7,0,0,0-6.1-14.8,20.5,20.5,0,0,0-14.8-6.1,20.4,20.4,0,0,0-13.9,5.7,8,8,0,1,1-9.6-12.8,36.4,36.4,0,0,1,23.5-9.6,36.9,36.9,0,0,1,26.1,10.8,36.2,36.2,0,0,1,10.8,26.1,36.9,36.9,0,0,1-10.8,26.1A36.4,36.4,0,0,1,104.3,158.6Z"/>
      <path fill="#fff" d="M172,128a8,8,0,0,1-8,8H104a8,8,0,0,1,0-16h60A8,8,0,0,1,172,128Z"/>
    </g>
  </g>
</svg>
