<svg width="256" height="256" viewBox="0 0 256 256" fill="none" xmlns="http://www.w3.org/2000/svg">
    <defs>
        <radialGradient id="grad1" cx="50%" cy="50%" r="50%" fx="50%" fy="50%">
            <stop offset="0%" style="stop-color:#1e293b;stop-opacity:1" />
            <stop offset="100%" style="stop-color:#0f172a;stop-opacity:1" />
        </radialGradient>
        <filter id="glow">
            <feGaussianBlur stdDeviation="3.5" result="coloredBlur"/>
            <feMerge>
                <feMergeNode in="coloredBlur"/>
                <feMergeNode in="SourceGraphic"/>
            </feMerge>
        </filter>
    </defs>
    <circle cx="128" cy="128" r="120" fill="url(#grad1)" filter="url(#glow)"/>
    <circle cx="128" cy="128" r="118" fill="transparent" stroke="#334155" stroke-width="2"/>
    <!-- Stars -->
    <circle cx="60" cy="70" r="3" fill="white" opacity="0.8"/>
    <circle cx="190" cy="200" r="3" fill="white" opacity="0.8"/>
    <circle cx="100" cy="210" r="2" fill="white" opacity="0.7"/>
    <circle cx="210" cy="90" r="2" fill="white" opacity="0.7"/>
    <circle cx="80" cy="150" r="1.5" fill="white" opacity="0.6"/>
    <circle cx="170" cy="120" r="1.5" fill="white" opacity="0.6"/>
    <circle cx="50" cy="180" r="1" fill="white" opacity="0.5"/>
    <circle cx="200" cy="50" r="1" fill="white" opacity="0.5"/>
    <g style="filter: drop-shadow(0 0 8px rgba(255, 255, 255, 0.3));">
        <g transform="translate(128, 128) scale(0.9) translate(-88, -88)">
  <circle cx="88" cy="88" r="88" fill="#1b1c1e"/>
  <path d="M149.3 49.3c-2-2-4.8-3.3-7.7-3.3-3 0-5.7.9-8 2.8l-56.1 42.6c-2.3 1.7-5.1 2.6-7.9 2.6s-5.6-.9-7.9-2.6L24.8 49.3c-2.3-1.7-5.1-2.6-7.9-2.6s-5.6.9-7.9 2.6C6.7 51.6 5 54.8 5 58.3c0 3.5 1.7 6.7 4.2 8.8l38 31.1-38 31.1c-2.5 2-4.2 5.2-4.2 8.8 0 3.5 1.7 6.7 4.2 8.8 2.3 2 5.1 3.3 7.9 3.3s5.6-.9 7.9-2.8l36.9-42.6c2.3-1.7 5.1-2.6 7.9-2.6s5.6.9 7.9 2.6l36.9 42.6c2.3 1.7 5.1 2.6 7.9 2.6s5.6-.9 7.9-2.8c2.5-2 4.2-5.2 4.2-8.8s-1.7-6.7-4.2-8.8l-38-31.1 38-31.1c2.5-2 4.2-5.2 4.2-8.8s-1.7-6.8-4.2-8.8z" fill="#69d8d1"/>
</g>
    </g>
</svg>
