<svg width="256" height="256" viewBox="0 0 256 256" fill="none" xmlns="http://www.w3.org/2000/svg">
    <defs>
        <radialGradient id="grad1" cx="50%" cy="50%" r="50%" fx="50%" fy="50%">
            <stop offset="0%" style="stop-color:#1e293b;stop-opacity:1" />
            <stop offset="100%" style="stop-color:#0f172a;stop-opacity:1" />
        </radialGradient>
        <filter id="glow">
            <feGaussianBlur stdDeviation="3.5" result="coloredBlur"/>
            <feMerge>
                <feMergeNode in="coloredBlur"/>
                <feMergeNode in="SourceGraphic"/>
            </feMerge>
        </filter>
    </defs>
    <circle cx="128" cy="128" r="120" fill="url(#grad1)" filter="url(#glow)"/>
    <circle cx="128" cy="128" r="118" fill="transparent" stroke="#334155" stroke-width="2"/>
    <!-- Stars -->
    <circle cx="60" cy="70" r="3" fill="white" opacity="0.8"/>
    <circle cx="190" cy="200" r="3" fill="white" opacity="0.8"/>
    <circle cx="100" cy="210" r="2" fill="white" opacity="0.7"/>
    <circle cx="210" cy="90" r="2" fill="white" opacity="0.7"/>
    <circle cx="80" cy="150" r="1.5" fill="white" opacity="0.6"/>
    <circle cx="170" cy="120" r="1.5" fill="white" opacity="0.6"/>
    <circle cx="50" cy="180" r="1" fill="white" opacity="0.5"/>
    <circle cx="200" cy="50" r="1" fill="white" opacity="0.5"/>
    <g style="filter: drop-shadow(0 0 8px rgba(255, 255, 255, 0.3));">
        <g transform="translate(128, 128) scale(0.8) translate(-128, -128)">
  <!-- Authentic Django logo -->
  <rect width="256" height="256" fill="#092E20" rx="20"/>
  
  <!-- Django text logo -->
  <g fill="#FFF">
    <path d="M46.4 119.2v-40c0-16.8 8.8-22.4 28.8-22.4h3.2v14.4h-2.4c-8.8 0-12.8 2.4-12.8 8.8v39.2c0 12.8-6.4 17.6-20.8 17.6s-20.8-4.8-20.8-17.6v-39.2c0-6.4-4-8.8-12.8-8.8h-2.4V56.8h3.2c20 0 28.8 5.6 28.8 22.4v40c0 8.8 4 12.8 12.8 12.8s12.8-4 12.8-12.8z"/>
    <path d="M115.2 134.4v-77.6h16.8v77.6c0 8.8 4 12.8 12.8 12.8s12.8-4 12.8-12.8v-77.6h16.8v77.6c0 16.8-8.8 22.4-28.8 22.4s-28.8-5.6-28.8-22.4z"/>
    <path d="M206.4 156.8v-99.2h15.2v8.8c4-6.4 12.8-10.4 22.4-10.4v15.2c-12.8 0-20.8 4.8-20.8 16.8v68.8h-16.8z"/>
    <path d="M46.4 190.4v-12.8h16.8v12.8c0 8.8 4 12.8 12.8 12.8s12.8-4 12.8-12.8v-12.8h16.8v12.8c0 16.8-8.8 22.4-28.8 22.4s-28.8-5.6-28.8-22.4z"/>
  </g>
  
  <!-- Extremely subtle glow effect (5% drift) -->
  <circle cx="128" cy="128" r="120" fill="none" stroke="#092E20" stroke-width="0.5" opacity="0.05" />
</g>
    </g>
</svg>
