<svg width="64" height="64" viewBox="0 0 64 64" xmlns="http://www.w3.org/2000/svg">
  
  <defs>
    <radialGradient id="bg-gradient" cx="50%" cy="50%" r="50%" fx="50%" fy="50%">
      <stop offset="0%" style="stop-color:#4a5568;stop-opacity:1" />
      <stop offset="100%" style="stop-color:#2d3748;stop-opacity:1" />
    </radialGradient>
    <filter id="drop-shadow" x="-50%" y="-50%" width="200%" height="200%">
      <feDropShadow dx="1" dy="1" stdDeviation="1.5" flood-color="#000000" flood-opacity="0.6"/>
    </filter>
     <filter id="glow" x="-50%" y="-50%" width="200%" height="200%">
      <feGaussianBlur stdDeviation="2" result="coloredBlur"/>
      <feMerge>
        <feMergeNode in="coloredBlur"/>
        <feMergeNode in="SourceGraphic"/>
      </feMerge>
    </filter>
  </defs>
  <circle cx="32" cy="32" r="30" fill="url(#bg-gradient)" />
  <g opacity="0.7">
    <circle cx="10" cy="20" r="1.5" fill="white" opacity="0.8"/><circle cx="55" cy="40" r="1" fill="white" opacity="0.6"/><circle cx="20" cy="50" r="0.8" fill="white" opacity="0.5"/><circle cx="45" cy="15" r="1.2" fill="white" opacity="0.7"/><circle cx="30" cy="10" r="0.5" fill="white" opacity="0.4"/><circle cx="5" cy="45" r="0.7" fill="white" opacity="0.5"/><circle cx="58" cy="12" r="0.6" fill="white" opacity="0.9"/>
  </g>
  <circle cx="32" cy="32" r="29" fill="none" stroke="#8e81f4" stroke-width="1.5" filter="url(#glow)" />

  <g filter="url(#drop-shadow)">
    <g transform="translate(16, 16) scale(0.125)">
      <path d="M243.6 133.4c-3.3-1-6.9-1.6-10.6-1.6h-34.9V79.3h34.9c3.7 0 7.3-.6 10.6-1.6 4.3-1.3 8-3.4 11-6.3 3-3 5.2-6.7 6.3-11 1.1-4.3 1.6-8.9 1.6-13.7 0-4.8-.6-9.4-1.6-13.7-1.1-4.3-3.3-8-6.3-11-3-3-6.6-5-11-6.3-3.3-1-6.9-1.6-10.6-1.6H13.6c-4.3 0-8.3.6-11.9 1.9-3.6 1.3-6.7 3.3-9.1 5.9-2.5 2.7-4.3 6-5.4 9.7s-1.6 7.6-1.6 11.7c0 4.1.6 8 1.6 11.7s2.9 7 5.4 9.7c2.4 2.7 5.5 4.7 9.1 5.9 3.6 1.3 7.6 1.9 11.9 1.9h95.9v102.5H13.6c-4.3 0-8.3-.6-11.9-1.9-3.6-1.3-6.7-3.3-9.1-5.9-2.5-2.7-4.3-6-5.4-9.7S-4.4 180.7-4.4 176.6c0-4.1.6-8 1.6-11.7s2.9-7 5.4-9.7c2.4-2.7 5.5-4.7 9.1-5.9 3.6-1.3 7.6-1.9 11.9-1.9h46.2V79.3H13.6c-4.3 0-8.3-.6-11.9-1.9-3.6-1.3-6.7-3.3-9.1-5.9-2.5-2.7-4.3-6-5.4-9.7S-4.4 54.1-4.4 50c0-4.1.6-8 1.6-11.7s2.9-7 5.4-9.7c2.4-2.7 5.5-4.7 9.1-5.9s7.6-1.9 11.9-1.9h95.9V10.6h-19.1c-4.3 0-8.3-.6-11.9-1.9-3.6-1.3-6.7-3.3-9.1-5.9C64.9.1 62.7-3.1 61.6-6.8c-1.1-3.7-1.6-7.6-1.6-11.7 0-4.1.6-8 1.6-11.7s2.9-7 5.4-9.7c2.4-2.7 5.5-4.7 9.1-5.9 3.6-1.3 7.6-1.9 11.9-1.9h19.1V-70h32.1v79.3h32.1c4.3 0 8.3.6 11.9 1.9 3.6 1.3 6.7 3.3 9.1 5.9 2.5 2.7 4.3 6 5.4 9.7s1.6 7.6 1.6 11.7c0 4.1-.6 8-1.6 11.7s-2.9 7-5.4 9.7c-2.4 2.7-5.5 4.7-9.1 5.9s-7.6 1.9-11.9 1.9h-32.1v38.5h34.9c3.7 0 7.3.6 10.6 1.6 4.3 1.3 8 3.4 11 6.3 3 3 5.2 6.7 6.3 11 1.1 4.3 1.6 8.9 1.6 13.7s-.6 9.4-1.6 13.7c-1.1 4.3-3.3 8-6.3 11-3 3-6.6 5-11 6.3Z" fill="#0094e6"/>
    </g>
  </g>
</svg>
