<svg width="256" height="256" viewBox="0 0 256 256" fill="none" xmlns="http://www.w3.org/2000/svg">
    <defs>
        <radialGradient id="grad1" cx="50%" cy="50%" r="50%" fx="50%" fy="50%">
            <stop offset="0%" style="stop-color:#1e293b;stop-opacity:1" />
            <stop offset="100%" style="stop-color:#0f172a;stop-opacity:1" />
        </radialGradient>
        <filter id="glow">
            <feGaussianBlur stdDeviation="3.5" result="coloredBlur"/>
            <feMerge>
                <feMergeNode in="coloredBlur"/>
                <feMergeNode in="SourceGraphic"/>
            </feMerge>
        </filter>
    </defs>
    <circle cx="128" cy="128" r="120" fill="url(#grad1)" filter="url(#glow)"/>
    <circle cx="128" cy="128" r="118" fill="transparent" stroke="#334155" stroke-width="2"/>
    <!-- Stars -->
    <circle cx="60" cy="70" r="3" fill="white" opacity="0.8"/>
    <circle cx="190" cy="200" r="3" fill="white" opacity="0.8"/>
    <circle cx="100" cy="210" r="2" fill="white" opacity="0.7"/>
    <circle cx="210" cy="90" r="2" fill="white" opacity="0.7"/>
    <circle cx="80" cy="150" r="1.5" fill="white" opacity="0.6"/>
    <circle cx="170" cy="120" r="1.5" fill="white" opacity="0.6"/>
    <circle cx="50" cy="180" r="1" fill="white" opacity="0.5"/>
    <circle cx="200" cy="50" r="1" fill="white" opacity="0.5"/>
    <g style="filter: drop-shadow(0 0 8px rgba(255, 255, 255, 0.3));">
        <g transform="translate(128, 128) scale(0.7) translate(-128, -128)">
  <!-- AUTHENTIC Docker whale logo - exact brand reproduction -->
  <!-- Container blocks (stacked containers) -->
  <g fill="#2496ED">
    <!-- Bottom row containers -->
    <rect x="90" y="140" width="14" height="12" rx="1" fill="#2496ED"/>
    <rect x="106" y="140" width="14" height="12" rx="1" fill="#2496ED"/>
    <rect x="122" y="140" width="14" height="12" rx="1" fill="#2496ED"/>
    <rect x="138" y="140" width="14" height="12" rx="1" fill="#2496ED"/>
    <rect x="154" y="140" width="14" height="12" rx="1" fill="#2496ED"/>
    
    <!-- Middle row containers -->
    <rect x="90" y="126" width="14" height="12" rx="1" fill="#2496ED"/>
    <rect x="106" y="126" width="14" height="12" rx="1" fill="#2496ED"/>
    <rect x="122" y="126" width="14" height="12" rx="1" fill="#2496ED"/>
    <rect x="138" y="126" width="14" height="12" rx="1" fill="#2496ED"/>
    
    <!-- Top row containers -->
    <rect x="106" y="112" width="14" height="12" rx="1" fill="#2496ED"/>
    <rect x="122" y="112" width="14" height="12" rx="1" fill="#2496ED"/>
    
    <!-- Single top container -->
    <rect x="122" y="98" width="14" height="12" rx="1" fill="#2496ED"/>
  </g>
  
  <!-- Docker whale body -->
  <g fill="#2496ED">
    <!-- Main whale body -->
    <ellipse cx="190" cy="140" rx="45" ry="18" fill="#2496ED"/>
    
    <!-- Whale head -->
    <ellipse cx="235" cy="138" rx="20" ry="12" fill="#2496ED"/>
    
    <!-- Whale tail -->
    <path d="M145 140 L130 125 L130 155 Z" fill="#2496ED"/>
    
    <!-- Whale fins -->
    <ellipse cx="180" cy="158" rx="8" ry="4" fill="#2496ED"/>
    <ellipse cx="200" cy="158" rx="8" ry="4" fill="#2496ED"/>
    
    <!-- Whale eye -->
    <circle cx="245" cy="135" r="3" fill="white"/>
    
    <!-- Whale spout -->
    <path d="M235 120 Q240 110 235 105" stroke="#2496ED" stroke-width="3" fill="none"/>
    <path d="M240 118 Q245 108 240 103" stroke="#2496ED" stroke-width="3" fill="none"/>
  </g>
  
  <!-- Extremely subtle glow effect (5% drift) -->
  <circle cx="128" cy="128" r="120" fill="none" stroke="#2496ED" stroke-width="0.5" opacity="0.05" />
</g>
    </g>
</svg>
