<svg width="256" height="256" viewBox="0 0 256 256" fill="none" xmlns="http://www.w3.org/2000/svg">
    <defs>
        <radialGradient id="grad1" cx="50%" cy="50%" r="50%" fx="50%" fy="50%">
            <stop offset="0%" style="stop-color:#1e293b;stop-opacity:1" />
            <stop offset="100%" style="stop-color:#0f172a;stop-opacity:1" />
        </radialGradient>
        <filter id="glow">
            <feGaussianBlur stdDeviation="3.5" result="coloredBlur"/>
            <feMerge>
                <feMergeNode in="coloredBlur"/>
                <feMergeNode in="SourceGraphic"/>
            </feMerge>
        </filter>
    </defs>
    <circle cx="128" cy="128" r="120" fill="url(#grad1)" filter="url(#glow)"/>
    <circle cx="128" cy="128" r="118" fill="transparent" stroke="#334155" stroke-width="2"/>
    <!-- Stars -->
    <circle cx="60" cy="70" r="3" fill="white" opacity="0.8"/>
    <circle cx="190" cy="200" r="3" fill="white" opacity="0.8"/>
    <circle cx="100" cy="210" r="2" fill="white" opacity="0.7"/>
    <circle cx="210" cy="90" r="2" fill="white" opacity="0.7"/>
    <circle cx="80" cy="150" r="1.5" fill="white" opacity="0.6"/>
    <circle cx="170" cy="120" r="1.5" fill="white" opacity="0.6"/>
    <circle cx="50" cy="180" r="1" fill="white" opacity="0.5"/>
    <circle cx="200" cy="50" r="1" fill="white" opacity="0.5"/>
    <g style="filter: drop-shadow(0 0 8px rgba(255, 255, 255, 0.3));">
        <g transform="translate(128, 128) scale(0.9) translate(-128, -128)">
  <!-- Simple, recognizable Docker whale -->
  <g fill="#2496ED">
    <!-- Container blocks -->
    <rect x="90" y="105" width="16" height="12" rx="2"/>
    <rect x="108" y="105" width="16" height="12" rx="2"/>
    <rect x="126" y="105" width="16" height="12" rx="2"/>
    <rect x="144" y="105" width="16" height="12" rx="2"/>
    
    <rect x="108" y="92" width="16" height="12" rx="2"/>
    <rect x="126" y="92" width="16" height="12" rx="2"/>
    
    <rect x="126" y="79" width="16" height="12" rx="2"/>
    
    <!-- Simple whale body -->
    <ellipse cx="128" cy="135" rx="45" ry="15" fill="#2496ED"/>
    
    <!-- Whale tail -->
    <path d="M70 135 L85 125 L85 145 Z" fill="#2496ED"/>
    
    <!-- Whale eye -->
    <circle cx="150" cy="130" r="4" fill="white"/>
  </g>
  
  <!-- Extremely subtle glow effect (5% drift) -->
  <circle cx="128" cy="128" r="120" fill="none" stroke="#2496ED" stroke-width="0.5" opacity="0.05" />
</g>
    </g>
</svg>
