<svg width="256" height="256" viewBox="0 0 256 256" fill="none" xmlns="http://www.w3.org/2000/svg">
    <defs>
        <radialGradient id="grad1" cx="50%" cy="50%" r="50%" fx="50%" fy="50%">
            <stop offset="0%" style="stop-color:#1e293b;stop-opacity:1" />
            <stop offset="100%" style="stop-color:#0f172a;stop-opacity:1" />
        </radialGradient>
        <filter id="glow">
            <feGaussianBlur stdDeviation="3.5" result="coloredBlur"/>
            <feMerge>
                <feMergeNode in="coloredBlur"/>
                <feMergeNode in="SourceGraphic"/>
            </feMerge>
        </filter>
    </defs>
    <circle cx="128" cy="128" r="120" fill="url(#grad1)" filter="url(#glow)"/>
    <circle cx="128" cy="128" r="118" fill="transparent" stroke="#334155" stroke-width="2"/>
    <!-- Stars -->
    <circle cx="60" cy="70" r="3" fill="white" opacity="0.8"/>
    <circle cx="190" cy="200" r="3" fill="white" opacity="0.8"/>
    <circle cx="100" cy="210" r="2" fill="white" opacity="0.7"/>
    <circle cx="210" cy="90" r="2" fill="white" opacity="0.7"/>
    <circle cx="80" cy="150" r="1.5" fill="white" opacity="0.6"/>
    <circle cx="170" cy="120" r="1.5" fill="white" opacity="0.6"/>
    <circle cx="50" cy="180" r="1" fill="white" opacity="0.5"/>
    <circle cx="200" cy="50" r="1" fill="white" opacity="0.5"/>
    <g style="filter: drop-shadow(0 0 8px rgba(255, 255, 255, 0.3));">
        <g transform="translate(128, 128) scale(1.25) translate(-64, -64)">
  <path d="M122.3 62.3c-1.7-.5-3.5-.8-5.4-.8h-17.9v-27.4h17.9c1.9 0 3.7-.3 5.4-.8 2.2-.7 4.1-1.7 5.6-3.2 1.5-1.5 2.7-3.4 3.2-5.6.6-2.2.8-4.5.8-7 0-2.5-.3-4.8-.8-7-.6-2.2-1.7-4.1-3.2-5.6-1.5-1.5-3.4-2.7-5.6-3.2-1.7-.5-3.5-.8-5.4-.8H6.9c-2.2 0-4.2.3-6.1 1-1.8.6-3.4 1.7-4.7 3-1.3 1.4-2.2 3.1-2.8 5- C-1.2 40-1.2 42.1-1.2 44.2c0 2.1.3 4.1.8 6 .6 1.9 1.5 3.6 2.8 5 1.3 1.4 2.8 2.4 4.7 3 1.8.6 3.8 1 6.1 1h49.2v52.6H6.9c-2.2 0-4.2-.3-6.1-1-1.8-.6-3.4-1.7-4.7-3-1.3-1.4-2.2-3.1-2.8-5-.6-1.9-.8-4-.8-6 0-2.1.3-4.1.8-6 .6-1.9 1.5-3.6 2.8-5 1.3-1.4 2.8-2.4 4.7-3 1.8-.6 3.8-1 6.1-1h23.7v-30H6.9c-2.2 0-4.2-.3-6.1-1-1.8-.6-3.4-1.7-4.7-3-1.3-1.4-2.2-3.1-2.8-5C-1.2 42-1.2 40-1.2 38c0-2.1.3-4.1.8-6 .6-1.9 1.5-3.6 2.8-5 1.3-1.4 2.8-2.4 4.7-3s3.8-1 6.1-1h49.2V-4.4h-9.8c-2.2 0-4.2-.3-6.1-1-1.8-.6-3.4-1.7-4.7-3-1.3-1.4-2.2-3.1-2.8-5-.6-1.9-.8-4-.8-6 0-2.1.3-4.1.8-6 .6-1.9 1.5-3.6 2.8-5 1.3-1.4 2.8-2.4 4.7-3s3.8-1 6.1-1h9.8v-10.2h16.5v40.7h16.5c2.2 0 4.2.3 6.1 1 1.8.6 3.4 1.7 4.7 3 1.3 1.4 2.2 3.1 2.8 5 .6 1.9.8 4 .8 6 0 2.1-.3 4.1-.8 6-.6 1.9-1.5 3.6-2.8 5-1.3 1.4-2.8 2.4-4.7-3-1.8-.6-3.8-1-6.1-1h-16.5v19.8h17.9c1.9 0 3.7.3 5.4.8 2.2.7 4.1 1.7 5.6 3.2 1.5 1.5 2.7 3.4 3.2 5.6.6 2.2.8 4.5.8 7s-.3 4.8-.8 7c-.6 2.2-1.7 4.1-3.2 5.6-1.5 1.5-3.4 2.7-5.6 3.2z" fill="#2496ed"/>
</g>
    </g>
</svg>
