<svg width="256" height="256" viewBox="0 0 256 256" fill="none" xmlns="http://www.w3.org/2000/svg">
    <defs>
        <radialGradient id="grad1" cx="50%" cy="50%" r="50%" fx="50%" fy="50%">
            <stop offset="0%" style="stop-color:#1e293b;stop-opacity:1" />
            <stop offset="100%" style="stop-color:#0f172a;stop-opacity:1" />
        </radialGradient>
        <filter id="glow">
            <feGaussianBlur stdDeviation="3.5" result="coloredBlur"/>
            <feMerge>
                <feMergeNode in="coloredBlur"/>
                <feMergeNode in="SourceGraphic"/>
            </feMerge>
        </filter>
    </defs>
    <circle cx="128" cy="128" r="120" fill="url(#grad1)" filter="url(#glow)"/>
    <circle cx="128" cy="128" r="118" fill="transparent" stroke="#334155" stroke-width="2"/>
    <!-- Stars -->
    <circle cx="60" cy="70" r="3" fill="white" opacity="0.8"/>
    <circle cx="190" cy="200" r="3" fill="white" opacity="0.8"/>
    <circle cx="100" cy="210" r="2" fill="white" opacity="0.7"/>
    <circle cx="210" cy="90" r="2" fill="white" opacity="0.7"/>
    <circle cx="80" cy="150" r="1.5" fill="white" opacity="0.6"/>
    <circle cx="170" cy="120" r="1.5" fill="white" opacity="0.6"/>
    <circle cx="50" cy="180" r="1" fill="white" opacity="0.5"/>
    <circle cx="200" cy="50" r="1" fill="white" opacity="0.5"/>
    <g style="filter: drop-shadow(0 0 8px rgba(255, 255, 255, 0.3));">
        <g transform="translate(128, 128) scale(0.75) translate(-32, -32)">
    <!-- Docker containers (stacked boxes) -->
    <g fill="#2396ED">
      <rect x="24" y="30" width="5" height="4" rx="0.5"/>
      <rect x="30" y="30" width="5" height="4" rx="0.5"/>
      <rect x="36" y="30" width="5" height="4" rx="0.5"/>
      <rect x="42" y="30" width="5" height="4" rx="0.5"/>
      <rect x="48" y="30" width="5" height="4" rx="0.5"/>
      
      <rect x="24" y="25" width="5" height="4" rx="0.5"/>
      <rect x="30" y="25" width="5" height="4" rx="0.5"/>
      <rect x="36" y="25" width="5" height="4" rx="0.5"/>
      
      <rect x="30" y="20" width="5" height="4" rx="0.5"/>
    </g>
    
    <!-- Docker whale -->
    <g fill="#2396ED">
      <!-- Whale body -->
      <path d="M8 35c0-2 2-4 4-4h44c8 0 8 6 0 6c-2 0-4 1-4 3s2 3 4 3c8 0 8 6 0 6H12c-2 0-4-2-4-4v-10z"/>
      
      <!-- Whale tail -->
      <path d="M4 33c0-1 0-2 2-2s2 1 2 2v6c0 1 0 2-2 2s-2-1-2-2v-6z"/>
      
      <!-- Whale spout -->
      <path d="M14 28c0-1 1-2 2-2s2 1 2 2v3c0 1-1 2-2 2s-2-1-2-2v-3z"/>
      <path d="M20 26c0-1 1-2 2-2s2 1 2 2v3c0 1-1 2-2 2s-2-1-2-2v-3z"/>
      
      <!-- Whale eye -->
      <circle cx="50" cy="37" r="1" fill="white"/>
    </g>
</g>
    </g>
</svg>
