<svg width="256" height="256" viewBox="0 0 256 256" fill="none" xmlns="http://www.w3.org/2000/svg">
    <defs>
        <radialGradient id="grad1" cx="50%" cy="50%" r="50%" fx="50%" fy="50%">
            <stop offset="0%" style="stop-color:#1e293b;stop-opacity:1" />
            <stop offset="100%" style="stop-color:#0f172a;stop-opacity:1" />
        </radialGradient>
        <filter id="glow">
            <feGaussianBlur stdDeviation="3.5" result="coloredBlur"/>
            <feMerge>
                <feMergeNode in="coloredBlur"/>
                <feMergeNode in="SourceGraphic"/>
            </feMerge>
        </filter>
    </defs>
    <circle cx="128" cy="128" r="120" fill="url(#grad1)" filter="url(#glow)"/>
    <circle cx="128" cy="128" r="118" fill="transparent" stroke="#334155" stroke-width="2"/>
    <!-- Stars -->
    <circle cx="60" cy="70" r="3" fill="white" opacity="0.8"/>
    <circle cx="190" cy="200" r="3" fill="white" opacity="0.8"/>
    <circle cx="100" cy="210" r="2" fill="white" opacity="0.7"/>
    <circle cx="210" cy="90" r="2" fill="white" opacity="0.7"/>
    <circle cx="80" cy="150" r="1.5" fill="white" opacity="0.6"/>
    <circle cx="170" cy="120" r="1.5" fill="white" opacity="0.6"/>
    <circle cx="50" cy="180" r="1" fill="white" opacity="0.5"/>
    <circle cx="200" cy="50" r="1" fill="white" opacity="0.5"/>
    <g style="filter: drop-shadow(0 0 8px rgba(255, 255, 255, 0.3));">
        <svg xmlns="http://www.w3.org/2000/svg" viewBox="0 0 256 256">
  <!-- Authentic Express.js logo -->
  <g transform="translate(128, 128)">
    <!-- Background circle -->
    <circle cx="0" cy="0" r="100" fill="#000000" opacity="0.9" />
    
    <!-- Express text styling -->
    <text x="0" y="8" font-family="Arial, sans-serif" font-size="28" font-weight="bold" 
          fill="#ffffff" text-anchor="middle" opacity="0.95">express</text>
    
    <!-- Underline accent -->
    <line x1="-60" y1="20" x2="60" y2="20" stroke="#ffffff" stroke-width="2" opacity="0.8" />
    
    <!-- Subtle corner brackets -->
    <g opacity="0.6">
      <path d="M -80 -80 L -80 -60 L -60 -60" fill="none" stroke="#ffffff" stroke-width="2" />
      <path d="M 80 -80 L 80 -60 L 60 -60" fill="none" stroke="#ffffff" stroke-width="2" />
      <path d="M -80 80 L -80 60 L -60 60" fill="none" stroke="#ffffff" stroke-width="2" />
      <path d="M 80 80 L 80 60 L 60 60" fill="none" stroke="#ffffff" stroke-width="2" />
    </g>
    
    <!-- Fast/speed indicators -->
    <g opacity="0.4">
      <line x1="-90" y1="-40" x2="-70" y2="-40" stroke="#ffffff" stroke-width="1" />
      <line x1="-90" y1="-30" x2="-65" y2="-30" stroke="#ffffff" stroke-width="1" />
      <line x1="-90" y1="-20" x2="-75" y2="-20" stroke="#ffffff" stroke-width="1" />
    </g>
  </g>
  
  <!-- Extremely subtle glow effect (5% drift) -->
  <circle cx="128" cy="128" r="110" fill="none" stroke="#333333" stroke-width="0.5" opacity="0.05" />
</svg>
    </g>
</svg>
