<svg width="256" height="256" viewBox="0 0 256 256" fill="none" xmlns="http://www.w3.org/2000/svg">
    <defs>
        <radialGradient id="grad1" cx="50%" cy="50%" r="50%" fx="50%" fy="50%">
            <stop offset="0%" style="stop-color:#1e293b;stop-opacity:1" />
            <stop offset="100%" style="stop-color:#0f172a;stop-opacity:1" />
        </radialGradient>
        <filter id="glow">
            <feGaussianBlur stdDeviation="3.5" result="coloredBlur"/>
            <feMerge>
                <feMergeNode in="coloredBlur"/>
                <feMergeNode in="SourceGraphic"/>
            </feMerge>
        </filter>
    </defs>
    <circle cx="128" cy="128" r="120" fill="url(#grad1)" filter="url(#glow)"/>
    <circle cx="128" cy="128" r="118" fill="transparent" stroke="#334155" stroke-width="2"/>
    <!-- Stars -->
    <circle cx="60" cy="70" r="3" fill="white" opacity="0.8"/>
    <circle cx="190" cy="200" r="3" fill="white" opacity="0.8"/>
    <circle cx="100" cy="210" r="2" fill="white" opacity="0.7"/>
    <circle cx="210" cy="90" r="2" fill="white" opacity="0.7"/>
    <circle cx="80" cy="150" r="1.5" fill="white" opacity="0.6"/>
    <circle cx="170" cy="120" r="1.5" fill="white" opacity="0.6"/>
    <circle cx="50" cy="180" r="1" fill="white" opacity="0.5"/>
    <circle cx="200" cy="50" r="1" fill="white" opacity="0.5"/>
    <g style="filter: drop-shadow(0 0 8px rgba(255, 255, 255, 0.3));">
        <g transform="translate(128, 128) scale(0.8) translate(-128, -128)">
  <!-- Background with subtle texture -->
  <rect width="256" height="256" rx="60" fill="#1E1E1E" opacity="0.3"/>
  
  <!-- Figma logo with authentic colors and subtle glow - centered -->
  <g filter="url(#figmaGlow)" transform="translate(128, 128) translate(-21.3, -64)">
    <!-- Left side shapes -->
    <path d="M0 21.3a21.3 21.3 0 0 1 21.3-21.3h21.4v42.7H21.3A21.3 21.3 0 0 1 0 21.3z" fill="#F24E1E">
      <animate attributeName="fill" values="#F24E1E;#FF6B35;#F24E1E" dur="8s" repeatCount="indefinite"/>
    </path>
    <path d="M0 64a21.3 21.3 0 0 1 21.3-21.3h21.4V85.4H21.3A21.3 21.3 0 0 1 0 64z" fill="#A259FF">
      <animate attributeName="fill" values="#A259FF;#B366FF;#A259FF" dur="8s" begin="1s" repeatCount="indefinite"/>
    </path>
    <path d="M0 106.7a21.3 21.3 0 0 1 21.3-21.4h21.4v21.4a21.3 21.3 0 0 1-21.4 21.3A21.3 21.3 0 0 1 0 106.7z" fill="#0ACF83">
      <animate attributeName="fill" values="#0ACF83;#1DD1A1;#0ACF83" dur="8s" begin="2s" repeatCount="indefinite"/>
    </path>
    
    <!-- Right side shapes -->
    <circle cx="64" cy="21.3" r="21.3" fill="#FF7262">
      <animate attributeName="fill" values="#FF7262;#FF8A80;#FF7262" dur="8s" begin="3s" repeatCount="indefinite"/>
    </circle>
    <circle cx="64" cy="64" r="21.3" fill="#1ABCFE">
      <animate attributeName="fill" values="#1ABCFE;#40C4FF;#1ABCFE" dur="8s" begin="4s" repeatCount="indefinite"/>
    </circle>
  </g>
  
  <!-- Subtle design accent -->
  <circle cx="200" cy="56" r="3" fill="#A259FF" opacity="0.3">
    <animate attributeName="opacity" values="0.3;0.7;0.3" dur="5s" repeatCount="indefinite"/>
  </circle>
  
  <defs>
    <filter id="figmaGlow">
      <feGaussianBlur stdDeviation="1" result="coloredBlur"/>
      <feMerge>
        <feMergeNode in="coloredBlur"/>
        <feMergeNode in="SourceGraphic"/>
      </feMerge>
    </filter>
  </defs>
</g>
    </g>
</svg>
