<svg width="256" height="256" viewBox="0 0 256 256" fill="none" xmlns="http://www.w3.org/2000/svg">
    <defs>
        <radialGradient id="grad1" cx="50%" cy="50%" r="50%" fx="50%" fy="50%">
            <stop offset="0%" style="stop-color:#1e293b;stop-opacity:1" />
            <stop offset="100%" style="stop-color:#0f172a;stop-opacity:1" />
        </radialGradient>
        <filter id="glow">
            <feGaussianBlur stdDeviation="3.5" result="coloredBlur"/>
            <feMerge>
                <feMergeNode in="coloredBlur"/>
                <feMergeNode in="SourceGraphic"/>
            </feMerge>
        </filter>
    </defs>
    <circle cx="128" cy="128" r="120" fill="url(#grad1)" filter="url(#glow)"/>
    <circle cx="128" cy="128" r="118" fill="transparent" stroke="#334155" stroke-width="2"/>
    <!-- Stars -->
    <circle cx="60" cy="70" r="3" fill="white" opacity="0.8"/>
    <circle cx="190" cy="200" r="3" fill="white" opacity="0.8"/>
    <circle cx="100" cy="210" r="2" fill="white" opacity="0.7"/>
    <circle cx="210" cy="90" r="2" fill="white" opacity="0.7"/>
    <circle cx="80" cy="150" r="1.5" fill="white" opacity="0.6"/>
    <circle cx="170" cy="120" r="1.5" fill="white" opacity="0.6"/>
    <circle cx="50" cy="180" r="1" fill="white" opacity="0.5"/>
    <circle cx="200" cy="50" r="1" fill="white" opacity="0.5"/>
    <g style="filter: drop-shadow(0 0 8px rgba(255, 255, 255, 0.3));">
        <g transform="translate(128, 128) scale(1.25) translate(-64, -64)">
  <path d="M42.7 128a21.3 21.3 0 0 1-21.4-21.3V85.4a21.3 21.3 0 1 1 42.7 0v21.3A21.3 21.3 0 0 1 42.7 128z" fill="#0acf83"/><path d="M21.3 85.4a21.3 21.3 0 1 1 42.7 0 21.3 21.3 0 0 1-42.7 0" fill="#a259ff"/><path d="M21.3 42.7a21.3 21.3 0 1 1 42.7 0v21.4H21.3V42.7z" fill="#f24e1e"/><path d="M64 21.3A21.3 21.3 0 1 1 42.7 0v42.7h21.4A21.3 21.3 0 0 1 64 21.3z" fill="#ff7262"/><path d="M85.3 42.7a21.3 21.3 0 1 1 42.7 0 21.3 21.3 0 0 1-42.7 0" fill="#1abcfe"/>
</g>
    </g>
</svg>
