<svg width="256" height="256" viewBox="0 0 256 256" fill="none" xmlns="http://www.w3.org/2000/svg">
    <defs>
        <radialGradient id="grad1" cx="50%" cy="50%" r="50%" fx="50%" fy="50%">
            <stop offset="0%" style="stop-color:#1e293b;stop-opacity:1" />
            <stop offset="100%" style="stop-color:#0f172a;stop-opacity:1" />
        </radialGradient>
        <filter id="glow">
            <feGaussianBlur stdDeviation="3.5" result="coloredBlur"/>
            <feMerge>
                <feMergeNode in="coloredBlur"/>
                <feMergeNode in="SourceGraphic"/>
            </feMerge>
        </filter>
    </defs>
    <circle cx="128" cy="128" r="120" fill="url(#grad1)" filter="url(#glow)"/>
    <circle cx="128" cy="128" r="118" fill="transparent" stroke="#334155" stroke-width="2"/>
    <!-- Stars -->
    <circle cx="60" cy="70" r="3" fill="white" opacity="0.8"/>
    <circle cx="190" cy="200" r="3" fill="white" opacity="0.8"/>
    <circle cx="100" cy="210" r="2" fill="white" opacity="0.7"/>
    <circle cx="210" cy="90" r="2" fill="white" opacity="0.7"/>
    <circle cx="80" cy="150" r="1.5" fill="white" opacity="0.6"/>
    <circle cx="170" cy="120" r="1.5" fill="white" opacity="0.6"/>
    <circle cx="50" cy="180" r="1" fill="white" opacity="0.5"/>
    <circle cx="200" cy="50" r="1" fill="white" opacity="0.5"/>
    <g style="filter: drop-shadow(0 0 8px rgba(255, 255, 255, 0.3));">
        <g transform="translate(128, 128) scale(0.9) translate(-128, -128)">
  <!-- Authentic Firebase flame logo simplified for icon clarity -->
  <!-- Main flame body (red) -->
  <path d="M105 70 C95 85 90 105 95 125 L100 160 L128 190 L156 160 L140 90 L125 70 L115 85 L105 70 Z" fill="#DD2C00"/>
  
  <!-- Left flame section (yellow) -->
  <path d="M90 90 C85 100 88 115 95 125 L100 160 L128 190 L105 150 L95 125 C90 110 85 100 90 90 Z" fill="#FFC400"/>
  
  <!-- Right flame section (orange) -->
  <path d="M125 70 L140 90 L156 160 L128 190 L145 150 L140 90 C138 80 132 72 125 70 Z" fill="#FF9100"/>
  
  <!-- Flame highlight -->
  <path d="M115 85 L125 70 L128 95 L120 105 L115 85 Z" fill="#FFF9C4" opacity="0.7"/>
  
  <!-- Flame base -->
  <ellipse cx="128" cy="185" rx="20" ry="6" fill="#DD2C00" opacity="0.6"/>
  
  <!-- Extremely subtle glow effect (5% drift) -->
  <circle cx="128" cy="128" r="120" fill="none" stroke="#FF9100" stroke-width="0.5" opacity="0.05" />
</g>
    </g>
</svg>
