<svg width="256" height="256" viewBox="0 0 256 256" fill="none" xmlns="http://www.w3.org/2000/svg">
    <defs>
        <radialGradient id="grad1" cx="50%" cy="50%" r="50%" fx="50%" fy="50%">
            <stop offset="0%" style="stop-color:#1e293b;stop-opacity:1" />
            <stop offset="100%" style="stop-color:#0f172a;stop-opacity:1" />
        </radialGradient>
        <filter id="glow">
            <feGaussianBlur stdDeviation="3.5" result="coloredBlur"/>
            <feMerge>
                <feMergeNode in="coloredBlur"/>
                <feMergeNode in="SourceGraphic"/>
            </feMerge>
        </filter>
    </defs>
    <circle cx="128" cy="128" r="120" fill="url(#grad1)" filter="url(#glow)"/>
    <circle cx="128" cy="128" r="118" fill="transparent" stroke="#334155" stroke-width="2"/>
    <!-- Stars -->
    <circle cx="60" cy="70" r="3" fill="white" opacity="0.8"/>
    <circle cx="190" cy="200" r="3" fill="white" opacity="0.8"/>
    <circle cx="100" cy="210" r="2" fill="white" opacity="0.7"/>
    <circle cx="210" cy="90" r="2" fill="white" opacity="0.7"/>
    <circle cx="80" cy="150" r="1.5" fill="white" opacity="0.6"/>
    <circle cx="170" cy="120" r="1.5" fill="white" opacity="0.6"/>
    <circle cx="50" cy="180" r="1" fill="white" opacity="0.5"/>
    <circle cx="200" cy="50" r="1" fill="white" opacity="0.5"/>
    <g style="filter: drop-shadow(0 0 8px rgba(255, 255, 255, 0.3));">
        <g transform="translate(128, 128) scale(0.8) translate(-16, -16)">
    <!-- Firebase Flame Icon -->
    <!-- Main flame body -->
    <path d="M16 4.5L13.5 11L8 16.5L16 30L24 16.5L20.5 11L16 4.5Z" fill="#FFCA28"/>
    
    <!-- Orange flame section -->
    <path d="M16 4.5L13.5 11L8 16.5L16 30L20 22L16 4.5Z" fill="#FFA000"/>
    
    <!-- Red flame section -->
    <path d="M16 4.5L13.5 11L8 16.5L16 30L14 24L16 4.5Z" fill="#F57C00"/>
    
    <!-- Bottom flame -->
    <path d="M8 16.5L16 30L24 16.5L20 20L16 24L12 20L8 16.5Z" fill="#FF8F00"/>
    
    <!-- Highlight on flame -->
    <path d="M16 4.5L18 8L20.5 11L16 16L16 4.5Z" fill="#FFF9C4" opacity="0.4"/>
</g>
    </g>
</svg>
