<svg width="256" height="256" viewBox="0 0 256 256" fill="none" xmlns="http://www.w3.org/2000/svg">
    <defs>
        <radialGradient id="grad1" cx="50%" cy="50%" r="50%" fx="50%" fy="50%">
            <stop offset="0%" style="stop-color:#1e293b;stop-opacity:1" />
            <stop offset="100%" style="stop-color:#0f172a;stop-opacity:1" />
        </radialGradient>
        <filter id="glow">
            <feGaussianBlur stdDeviation="3.5" result="coloredBlur"/>
            <feMerge>
                <feMergeNode in="coloredBlur"/>
                <feMergeNode in="SourceGraphic"/>
            </feMerge>
        </filter>
    </defs>
    <circle cx="128" cy="128" r="120" fill="url(#grad1)" filter="url(#glow)"/>
    <circle cx="128" cy="128" r="118" fill="transparent" stroke="#334155" stroke-width="2"/>
    <!-- Stars -->
    <circle cx="60" cy="70" r="3" fill="white" opacity="0.8"/>
    <circle cx="190" cy="200" r="3" fill="white" opacity="0.8"/>
    <circle cx="100" cy="210" r="2" fill="white" opacity="0.7"/>
    <circle cx="210" cy="90" r="2" fill="white" opacity="0.7"/>
    <circle cx="80" cy="150" r="1.5" fill="white" opacity="0.6"/>
    <circle cx="170" cy="120" r="1.5" fill="white" opacity="0.6"/>
    <circle cx="50" cy="180" r="1" fill="white" opacity="0.5"/>
    <circle cx="200" cy="50" r="1" fill="white" opacity="0.5"/>
    <g style="filter: drop-shadow(0 0 8px rgba(255, 255, 255, 0.3));">
        <g transform="translate(128, 128) scale(0.9) translate(-128, -128)">
  <!-- Authentic Firebase flame logo structure -->
  <!-- Left flame section (yellow/orange) -->
  <path d="M90 80 L128 120 L110 160 L70 140 L85 100 Z" fill="#FFC400"/>
  
  <!-- Right flame section (orange) -->
  <path d="M128 120 L166 80 L186 140 L146 160 L128 120 Z" fill="#FF9100"/>
  
  <!-- Bottom flame section (red) -->
  <path d="M110 160 L146 160 L128 190 L110 160 Z" fill="#DD2C00"/>
  
  <!-- Central flame highlight -->
  <path d="M128 120 L140 100 L128 140 L116 100 Z" fill="#FFF9C4" opacity="0.6"/>
  
  <!-- Flame base -->
  <ellipse cx="128" cy="165" rx="25" ry="8" fill="#DD2C00" opacity="0.8"/>
  
  <!-- Extremely subtle glow effect (5% drift) -->
  <circle cx="128" cy="128" r="120" fill="none" stroke="#FF9100" stroke-width="0.5" opacity="0.05" />
</g>
    </g>
</svg>
