<svg width="256" height="256" viewBox="0 0 256 256" fill="none" xmlns="http://www.w3.org/2000/svg">
    <defs>
        <radialGradient id="grad1" cx="50%" cy="50%" r="50%" fx="50%" fy="50%">
            <stop offset="0%" style="stop-color:#1e293b;stop-opacity:1" />
            <stop offset="100%" style="stop-color:#0f172a;stop-opacity:1" />
        </radialGradient>
        <filter id="glow">
            <feGaussianBlur stdDeviation="3.5" result="coloredBlur"/>
            <feMerge>
                <feMergeNode in="coloredBlur"/>
                <feMergeNode in="SourceGraphic"/>
            </feMerge>
        </filter>
    </defs>
    <circle cx="128" cy="128" r="120" fill="url(#grad1)" filter="url(#glow)"/>
    <circle cx="128" cy="128" r="118" fill="transparent" stroke="#334155" stroke-width="2"/>
    <!-- Stars -->
    <circle cx="60" cy="70" r="3" fill="white" opacity="0.8"/>
    <circle cx="190" cy="200" r="3" fill="white" opacity="0.8"/>
    <circle cx="100" cy="210" r="2" fill="white" opacity="0.7"/>
    <circle cx="210" cy="90" r="2" fill="white" opacity="0.7"/>
    <circle cx="80" cy="150" r="1.5" fill="white" opacity="0.6"/>
    <circle cx="170" cy="120" r="1.5" fill="white" opacity="0.6"/>
    <circle cx="50" cy="180" r="1" fill="white" opacity="0.5"/>
    <circle cx="200" cy="50" r="1" fill="white" opacity="0.5"/>
    <g style="filter: drop-shadow(0 0 8px rgba(255, 255, 255, 0.3));">
        <g transform="translate(128, 128) scale(0.8) translate(-128, -128)">
  <!-- AUTHENTIC Firebase flame logo - CORRECTED for centering -->
  <g transform="translate(-10, 0)">
    <path d="M84.3945 1.33524C69.5432 13.233 57.8158 28.9212 50.7205 46.9936C46.6583 57.3453 44.1056 68.4647 43.3603 80.1206C69.4365 86.8481 88.2772 110.957 87.2985 138.983C86.9264 149.637 83.7213 159.516 78.4599 167.961C88.391 177.149 100.028 184.522 112.877 189.57C138.667 177.649 156.965 151.996 158.025 121.654C158.711 101.995 151.158 84.4744 140.485 69.6852C129.214 54.0442 84.3945 1.33524 84.3945 1.33524Z" fill="#DD2C00" transform="translate(70, 30) scale(0.8)"/>
    <path d="M78.4711 167.955C55.8006 146.988 42.0477 116.641 43.21 83.3558C43.2478 82.2749 43.3048 81.1947 43.3715 80.1148C39.3113 79.0647 35.0725 78.4239 30.7103 78.2716C24.4663 78.0535 18.4195 78.8279 12.7108 80.4355C6.659 91.0365 3.00696 103.2 2.552 116.228C1.37785 149.852 21.7254 179.231 51.2257 191.112C62.5117 186.404 72.0331 178.272 78.4711 167.955Z" fill="#FFC400" transform="translate(70, 30) scale(0.8)"/>
    <path d="M78.472 167.954C83.7428 159.519 86.9386 149.63 87.3106 138.976C88.2893 110.95 69.4486 86.8412 43.3725 80.1137C43.3058 81.1936 43.2487 82.2738 43.211 83.3547C42.0486 116.64 55.8015 146.987 78.472 167.954Z" fill="#FF9100" transform="translate(70, 30) scale(0.8)"/>
    <path d="M51.2275 191.109C59.4031 194.399 68.2727 196.352 77.5857 196.677C90.1896 197.117 102.175 194.511 112.89 189.561C100.041 184.513 88.4043 177.131 78.4729 167.952C72.0352 178.26 62.5135 186.401 51.2275 191.109Z" fill="#FF9100" transform="translate(70, 30) scale(0.8)"/>
  </g>
  <circle cx="128" cy="128" r="120" fill="none" stroke="#FF9100" stroke-width="1" opacity="0.1" />
</g>
    </g>
</svg>
