<svg width="256" height="256" viewBox="0 0 256 256" fill="none" xmlns="http://www.w3.org/2000/svg">
    <defs>
        <radialGradient id="grad1" cx="50%" cy="50%" r="50%" fx="50%" fy="50%">
            <stop offset="0%" style="stop-color:#1e293b;stop-opacity:1" />
            <stop offset="100%" style="stop-color:#0f172a;stop-opacity:1" />
        </radialGradient>
        <filter id="glow">
            <feGaussianBlur stdDeviation="3.5" result="coloredBlur"/>
            <feMerge>
                <feMergeNode in="coloredBlur"/>
                <feMergeNode in="SourceGraphic"/>
            </feMerge>
        </filter>
    </defs>
    <circle cx="128" cy="128" r="120" fill="url(#grad1)" filter="url(#glow)"/>
    <circle cx="128" cy="128" r="118" fill="transparent" stroke="#334155" stroke-width="2"/>
    <!-- Stars -->
    <circle cx="60" cy="70" r="3" fill="white" opacity="0.8"/>
    <circle cx="190" cy="200" r="3" fill="white" opacity="0.8"/>
    <circle cx="100" cy="210" r="2" fill="white" opacity="0.7"/>
    <circle cx="210" cy="90" r="2" fill="white" opacity="0.7"/>
    <circle cx="80" cy="150" r="1.5" fill="white" opacity="0.6"/>
    <circle cx="170" cy="120" r="1.5" fill="white" opacity="0.6"/>
    <circle cx="50" cy="180" r="1" fill="white" opacity="0.5"/>
    <circle cx="200" cy="50" r="1" fill="white" opacity="0.5"/>
    <g style="filter: drop-shadow(0 0 8px rgba(255, 255, 255, 0.3));">
        <g transform="translate(128, 128) scale(0.9) translate(-128, -128)">
  <!-- Authentic Firebase flame logo -->
  <!-- Main flame body -->
  <path d="M128 60L115 90L96 130L128 200L160 130L145 90L128 60Z" fill="#FFCA28"/>
  
  <!-- Orange flame section -->
  <path d="M128 60L115 90L96 130L128 200L140 150L128 60Z" fill="#FFA000"/>
  
  <!-- Red flame section -->
  <path d="M128 60L115 90L96 130L128 200L120 170L128 60Z" fill="#F57C00"/>
  
  <!-- Bottom flame -->
  <path d="M96 130L128 200L160 130L140 150L128 170L116 150L96 130Z" fill="#FF8F00"/>
  
  <!-- Top flame highlight -->
  <path d="M128 60L135 80L145 90L128 110L128 60Z" fill="#FFF9C4" opacity="0.4"/>
  
  <!-- Extremely subtle glow effect (5% drift) -->
  <circle cx="128" cy="128" r="120" fill="none" stroke="#FFCA28" stroke-width="0.5" opacity="0.05" />
</g>
    </g>
</svg>
