<svg width="256" height="256" viewBox="0 0 256 256" fill="none" xmlns="http://www.w3.org/2000/svg">
    <defs>
        <radialGradient id="grad1" cx="50%" cy="50%" r="50%" fx="50%" fy="50%">
            <stop offset="0%" style="stop-color:#1e293b;stop-opacity:1" />
            <stop offset="100%" style="stop-color:#0f172a;stop-opacity:1" />
        </radialGradient>
        <filter id="glow">
            <feGaussianBlur stdDeviation="3.5" result="coloredBlur"/>
            <feMerge>
                <feMergeNode in="coloredBlur"/>
                <feMergeNode in="SourceGraphic"/>
            </feMerge>
        </filter>
    </defs>
    <circle cx="128" cy="128" r="120" fill="url(#grad1)" filter="url(#glow)"/>
    <circle cx="128" cy="128" r="118" fill="transparent" stroke="#334155" stroke-width="2"/>
    <!-- Stars -->
    <circle cx="60" cy="70" r="3" fill="white" opacity="0.8"/>
    <circle cx="190" cy="200" r="3" fill="white" opacity="0.8"/>
    <circle cx="100" cy="210" r="2" fill="white" opacity="0.7"/>
    <circle cx="210" cy="90" r="2" fill="white" opacity="0.7"/>
    <circle cx="80" cy="150" r="1.5" fill="white" opacity="0.6"/>
    <circle cx="170" cy="120" r="1.5" fill="white" opacity="0.6"/>
    <circle cx="50" cy="180" r="1" fill="white" opacity="0.5"/>
    <circle cx="200" cy="50" r="1" fill="white" opacity="0.5"/>
    <g style="filter: drop-shadow(0 0 8px rgba(255, 255, 255, 0.3));">
        <g transform="translate(128, 128) scale(0.9) translate(-128, -128)">
  <!-- Simple, recognizable GCP BigQuery -->
  <!-- Data table -->
  <rect x="80" y="90" width="96" height="60" fill="#4285F4" stroke="#34A853" stroke-width="3"/>
  
  <!-- Table rows -->
  <line x1="80" y1="110" x2="176" y2="110" stroke="#34A853" stroke-width="2"/>
  <line x1="80" y1="130" x2="176" y2="130" stroke="#34A853" stroke-width="2"/>
  
  <!-- Table columns -->
  <line x1="110" y1="90" x2="110" y2="150" stroke="#34A853" stroke-width="2"/>
  <line x1="146" y1="90" x2="146" y2="150" stroke="#34A853" stroke-width="2"/>
  
  <!-- Data dots -->
  <circle cx="95" cy="105" r="3" fill="#EA4335"/>
  <circle cx="128" cy="105" r="3" fill="#EA4335"/>
  <circle cx="161" cy="105" r="3" fill="#EA4335"/>
  
  <circle cx="95" cy="125" r="3" fill="#FBBC05"/>
  <circle cx="128" cy="125" r="3" fill="#FBBC05"/>
  <circle cx="161" cy="125" r="3" fill="#FBBC05"/>
  
  <!-- Query symbol -->
  <text x="128" y="175" font-family="Arial, sans-serif" font-size="20" font-weight="bold" fill="#4285F4" text-anchor="middle">?</text>
  
  <!-- Extremely subtle glow effect (5% drift) -->
  <circle cx="128" cy="128" r="120" fill="none" stroke="#4285F4" stroke-width="0.5" opacity="0.05" />
</g>
    </g>
</svg>
