<svg width="256" height="256" viewBox="0 0 256 256" fill="none" xmlns="http://www.w3.org/2000/svg">
    <defs>
        <radialGradient id="grad1" cx="50%" cy="50%" r="50%" fx="50%" fy="50%">
            <stop offset="0%" style="stop-color:#1e293b;stop-opacity:1" />
            <stop offset="100%" style="stop-color:#0f172a;stop-opacity:1" />
        </radialGradient>
        <filter id="glow">
            <feGaussianBlur stdDeviation="3.5" result="coloredBlur"/>
            <feMerge>
                <feMergeNode in="coloredBlur"/>
                <feMergeNode in="SourceGraphic"/>
            </feMerge>
        </filter>
    </defs>
    <circle cx="128" cy="128" r="120" fill="url(#grad1)" filter="url(#glow)"/>
    <circle cx="128" cy="128" r="118" fill="transparent" stroke="#334155" stroke-width="2"/>
    <!-- Stars -->
    <circle cx="60" cy="70" r="3" fill="white" opacity="0.8"/>
    <circle cx="190" cy="200" r="3" fill="white" opacity="0.8"/>
    <circle cx="100" cy="210" r="2" fill="white" opacity="0.7"/>
    <circle cx="210" cy="90" r="2" fill="white" opacity="0.7"/>
    <circle cx="80" cy="150" r="1.5" fill="white" opacity="0.6"/>
    <circle cx="170" cy="120" r="1.5" fill="white" opacity="0.6"/>
    <circle cx="50" cy="180" r="1" fill="white" opacity="0.5"/>
    <circle cx="200" cy="50" r="1" fill="white" opacity="0.5"/>
    <g style="filter: drop-shadow(0 0 8px rgba(255, 255, 255, 0.3));">
        <g transform="translate(128, 128) scale(6.6) translate(-12, -12)">
  <path d="M12 2a10 10 0 1 0 0 20 10 10 0 0 0 0-20zm-2.1 11.6a1.2 1.2 0 0 1-1.8 0l-1.3-1.3a1.2 1.2 0 0 1 0-1.8l4.1-4.1a1.2 1.2 0 0 1 1.8 0l1.3 1.3a1.2 1.2 0 0 1 0 1.8L9.9 13.6zm4.9-4.8L12.9 7a1.2 1.2 0 0 0-1.8 0L9.8 8.4a1.2 1.2 0 0 0 0 1.8l2 2-3.1 3.1a1.2 1.2 0 0 1-1.8 0l-1.3-1.3a1.2 1.2 0 0 1 0-1.8l4.1-4.1a1.2 1.2 0 0 1 1.8 0l1.3 1.3a1.2 1.2 0 0 1 0 1.8l-2 2 3.1-3.1a1.2 1.2 0 0 0 0-1.8L14.7 7a1.2 1.2 0 0 1 0-1.8l1.3-1.3a1.2 1.2 0 0 1 1.8 0l4.1 4.1a1.2 1.2 0 0 1 0 1.8l-1.3 1.3a1.2 1.2 0 0 1-1.8 0z" fill="#4285F4"/>
</g>
    </g>
</svg>
