<svg width="256" height="256" viewBox="0 0 256 256" fill="none" xmlns="http://www.w3.org/2000/svg">
    <defs>
        <radialGradient id="grad1" cx="50%" cy="50%" r="50%" fx="50%" fy="50%">
            <stop offset="0%" style="stop-color:#1e293b;stop-opacity:1" />
            <stop offset="100%" style="stop-color:#0f172a;stop-opacity:1" />
        </radialGradient>
        <filter id="glow">
            <feGaussianBlur stdDeviation="3.5" result="coloredBlur"/>
            <feMerge>
                <feMergeNode in="coloredBlur"/>
                <feMergeNode in="SourceGraphic"/>
            </feMerge>
        </filter>
    </defs>
    <circle cx="128" cy="128" r="120" fill="url(#grad1)" filter="url(#glow)"/>
    <circle cx="128" cy="128" r="118" fill="transparent" stroke="#334155" stroke-width="2"/>
    <!-- Stars -->
    <circle cx="60" cy="70" r="3" fill="white" opacity="0.8"/>
    <circle cx="190" cy="200" r="3" fill="white" opacity="0.8"/>
    <circle cx="100" cy="210" r="2" fill="white" opacity="0.7"/>
    <circle cx="210" cy="90" r="2" fill="white" opacity="0.7"/>
    <circle cx="80" cy="150" r="1.5" fill="white" opacity="0.6"/>
    <circle cx="170" cy="120" r="1.5" fill="white" opacity="0.6"/>
    <circle cx="50" cy="180" r="1" fill="white" opacity="0.5"/>
    <circle cx="200" cy="50" r="1" fill="white" opacity="0.5"/>
    <g style="filter: drop-shadow(0 0 8px rgba(255, 255, 255, 0.3));">
        <g transform="translate(128, 128) scale(0.9) translate(-24, -28)">
    <!-- Google Cloud Functions Logo -->
    <g>
        <!-- Function symbol background -->
        <rect x="8" y="8" width="32" height="32" rx="6" fill="#4285F4" opacity="0.1"/>
        
        <!-- Function symbol (ƒ) -->
        <path d="M16 12 L16 36 M16 12 L28 12 M16 20 L24 20" stroke="#4285F4" stroke-width="3" fill="none" stroke-linecap="round"/>
        
        <!-- Google cloud accent -->
        <circle cx="34" cy="14" r="2" fill="#EA4335"/>
        <circle cx="38" cy="18" r="1.5" fill="#FBBC04"/>
        <circle cx="34" cy="22" r="1" fill="#34A853"/>
        
        <!-- Function indicators -->
        <circle cx="12" cy="42" r="1" fill="#4285F4"/>
        <circle cx="20" cy="42" r="1" fill="#4285F4"/>
        <circle cx="28" cy="42" r="1" fill="#4285F4"/>
    </g>
</g>
    </g>
</svg>
