<svg width="256" height="256" viewBox="0 0 256 256" fill="none" xmlns="http://www.w3.org/2000/svg">
    <defs>
        <radialGradient id="grad1" cx="50%" cy="50%" r="50%" fx="50%" fy="50%">
            <stop offset="0%" style="stop-color:#1e293b;stop-opacity:1" />
            <stop offset="100%" style="stop-color:#0f172a;stop-opacity:1" />
        </radialGradient>
        <filter id="glow">
            <feGaussianBlur stdDeviation="3.5" result="coloredBlur"/>
            <feMerge>
                <feMergeNode in="coloredBlur"/>
                <feMergeNode in="SourceGraphic"/>
            </feMerge>
        </filter>
    </defs>
    <circle cx="128" cy="128" r="120" fill="url(#grad1)" filter="url(#glow)"/>
    <circle cx="128" cy="128" r="118" fill="transparent" stroke="#334155" stroke-width="2"/>
    <!-- Stars -->
    <circle cx="60" cy="70" r="3" fill="white" opacity="0.8"/>
    <circle cx="190" cy="200" r="3" fill="white" opacity="0.8"/>
    <circle cx="100" cy="210" r="2" fill="white" opacity="0.7"/>
    <circle cx="210" cy="90" r="2" fill="white" opacity="0.7"/>
    <circle cx="80" cy="150" r="1.5" fill="white" opacity="0.6"/>
    <circle cx="170" cy="120" r="1.5" fill="white" opacity="0.6"/>
    <circle cx="50" cy="180" r="1" fill="white" opacity="0.5"/>
    <circle cx="200" cy="50" r="1" fill="white" opacity="0.5"/>
    <g style="filter: drop-shadow(0 0 8px rgba(255, 255, 255, 0.3));">
        <g transform="translate(128, 128) scale(0.9) translate(-24, -24)">
    <!-- Google BigQuery Logo -->
    <g>
        <!-- Data table visualization -->
        <rect x="8" y="12" width="32" height="24" rx="2" fill="none" stroke="#4285F4" stroke-width="2"/>
        
        <!-- Table rows -->
        <line x1="8" y1="18" x2="40" y2="18" stroke="#4285F4" stroke-width="1"/>
        <line x1="8" y1="24" x2="40" y2="24" stroke="#4285F4" stroke-width="1"/>
        <line x1="8" y1="30" x2="40" y2="30" stroke="#4285F4" stroke-width="1"/>
        
        <!-- Table columns -->
        <line x1="18" y1="12" x2="18" y2="36" stroke="#4285F4" stroke-width="1"/>
        <line x1="28" y1="12" x2="28" y2="36" stroke="#4285F4" stroke-width="1"/>
        
        <!-- Query symbol -->
        <circle cx="20" cy="6" r="3" fill="none" stroke="#EA4335" stroke-width="2"/>
        <path d="M22 8 L25 11" stroke="#EA4335" stroke-width="2" stroke-linecap="round"/>
        
        <!-- Data points -->
        <circle cx="13" cy="15" r="1" fill="#FBBC04"/>
        <circle cx="23" cy="15" r="1" fill="#FBBC04"/>
        <circle cx="33" cy="15" r="1" fill="#FBBC04"/>
        
        <circle cx="13" cy="21" r="1" fill="#34A853"/>
        <circle cx="23" cy="21" r="1" fill="#34A853"/>
        <circle cx="33" cy="21" r="1" fill="#34A853"/>
        
        <circle cx="13" cy="27" r="1" fill="#4285F4"/>
        <circle cx="23" cy="27" r="1" fill="#4285F4"/>
        <circle cx="33" cy="27" r="1" fill="#4285F4"/>
    </g>
</g>
    </g>
</svg>
