<svg width="256" height="256" viewBox="0 0 256 256" fill="none" xmlns="http://www.w3.org/2000/svg">
    <defs>
        <radialGradient id="grad1" cx="50%" cy="50%" r="50%" fx="50%" fy="50%">
            <stop offset="0%" style="stop-color:#1e293b;stop-opacity:1" />
            <stop offset="100%" style="stop-color:#0f172a;stop-opacity:1" />
        </radialGradient>
        <filter id="glow">
            <feGaussianBlur stdDeviation="3.5" result="coloredBlur"/>
            <feMerge>
                <feMergeNode in="coloredBlur"/>
                <feMergeNode in="SourceGraphic"/>
            </feMerge>
        </filter>
    </defs>
    <circle cx="128" cy="128" r="120" fill="url(#grad1)" filter="url(#glow)"/>
    <circle cx="128" cy="128" r="118" fill="transparent" stroke="#334155" stroke-width="2"/>
    <!-- Stars -->
    <circle cx="60" cy="70" r="3" fill="white" opacity="0.8"/>
    <circle cx="190" cy="200" r="3" fill="white" opacity="0.8"/>
    <circle cx="100" cy="210" r="2" fill="white" opacity="0.7"/>
    <circle cx="210" cy="90" r="2" fill="white" opacity="0.7"/>
    <circle cx="80" cy="150" r="1.5" fill="white" opacity="0.6"/>
    <circle cx="170" cy="120" r="1.5" fill="white" opacity="0.6"/>
    <circle cx="50" cy="180" r="1" fill="white" opacity="0.5"/>
    <circle cx="200" cy="50" r="1" fill="white" opacity="0.5"/>
    <g style="filter: drop-shadow(0 0 8px rgba(255, 255, 255, 0.3));">
        <g transform="translate(128, 128) scale(1.1) translate(-128, -128)">
  <!-- Authentic Google BigQuery logo - bigger and more recognizable -->
  <!-- BigQuery diamond/rhombus shape -->
  <path d="M128 70 L180 110 L180 150 L128 190 L76 150 L76 110 Z" fill="#4285F4"/>
  
  <!-- Inner diamond pattern -->
  <path d="M128 90 L160 110 L160 150 L128 170 L96 150 L96 110 Z" fill="#34A853"/>
  
  <!-- Center core -->
  <path d="M128 110 L140 120 L140 140 L128 150 L116 140 L116 120 Z" fill="#EA4335"/>
  
  <!-- Data visualization lines -->
  <line x1="100" y1="125" x2="115" y2="125" stroke="white" stroke-width="2"/>
  <line x1="100" y1="135" x2="115" y2="135" stroke="white" stroke-width="2"/>
  <line x1="141" y1="125" x2="156" y2="125" stroke="white" stroke-width="2"/>
  <line x1="141" y1="135" x2="156" y2="135" stroke="white" stroke-width="2"/>
  
  <!-- Extremely subtle glow effect (5% drift) -->
  <circle cx="128" cy="128" r="120" fill="none" stroke="#4285F4" stroke-width="0.5" opacity="0.05" />
</g>
    </g>
</svg>
