<svg width="256" height="256" viewBox="0 0 256 256" fill="none" xmlns="http://www.w3.org/2000/svg">
    <defs>
        <radialGradient id="grad1" cx="50%" cy="50%" r="50%" fx="50%" fy="50%">
            <stop offset="0%" style="stop-color:#1e293b;stop-opacity:1" />
            <stop offset="100%" style="stop-color:#0f172a;stop-opacity:1" />
        </radialGradient>
        <filter id="glow">
            <feGaussianBlur stdDeviation="3.5" result="coloredBlur"/>
            <feMerge>
                <feMergeNode in="coloredBlur"/>
                <feMergeNode in="SourceGraphic"/>
            </feMerge>
        </filter>
    </defs>
    <circle cx="128" cy="128" r="120" fill="url(#grad1)" filter="url(#glow)"/>
    <circle cx="128" cy="128" r="118" fill="transparent" stroke="#334155" stroke-width="2"/>
    <!-- Stars -->
    <circle cx="60" cy="70" r="3" fill="white" opacity="0.8"/>
    <circle cx="190" cy="200" r="3" fill="white" opacity="0.8"/>
    <circle cx="100" cy="210" r="2" fill="white" opacity="0.7"/>
    <circle cx="210" cy="90" r="2" fill="white" opacity="0.7"/>
    <circle cx="80" cy="150" r="1.5" fill="white" opacity="0.6"/>
    <circle cx="170" cy="120" r="1.5" fill="white" opacity="0.6"/>
    <circle cx="50" cy="180" r="1" fill="white" opacity="0.5"/>
    <circle cx="200" cy="50" r="1" fill="white" opacity="0.5"/>
    <g style="filter: drop-shadow(0 0 8px rgba(255, 255, 255, 0.3));">
        <g transform="translate(128, 128) scale(6.6) translate(-12, -12)">
  <path d="M10.9 15.8 7.1 12l1.1-1.1 2.7 2.6L15.6 9l1.1 1.1z" fill="#039be5"/>
  <path d="M11.5 7.1 8.9 4.5 2.3 11.1l2.6 2.6 2.8-2.8 1.1-1.1L11.4 7l3.9-3.9-2.6-2.6-1.1 1.1L8.8 4.5" fill="#ffc107"/>
  <path d="M10.4 8.2 7.8 5.6 6.7 6.7 5 5l-2.2 2.2 1.7 1.7 1.1-1.1 2.6 2.6 1.1-1.1 1.1 1.1 2.2-2.2-1.1-1.1z" fill="#039be5"/>
  <path d="M19.3 8.9l-3.9-3.9-1.1 1.1 2.8 2.8-1.1 1.1L17 11.1l2.2-2.2z" fill="#ffc107"/>
  <path d="M7.8 3.4 6.7 4.5l2.2 2.2 1.1-1.1z" fill="#039be5"/>
</g>
    </g>
</svg>
