<svg width="256" height="256" viewBox="0 0 256 256" fill="none" xmlns="http://www.w3.org/2000/svg">
    <defs>
        <radialGradient id="grad1" cx="50%" cy="50%" r="50%" fx="50%" fy="50%">
            <stop offset="0%" style="stop-color:#1e293b;stop-opacity:1" />
            <stop offset="100%" style="stop-color:#0f172a;stop-opacity:1" />
        </radialGradient>
        <filter id="glow">
            <feGaussianBlur stdDeviation="3.5" result="coloredBlur"/>
            <feMerge>
                <feMergeNode in="coloredBlur"/>
                <feMergeNode in="SourceGraphic"/>
            </feMerge>
        </filter>
    </defs>
    <circle cx="128" cy="128" r="120" fill="url(#grad1)" filter="url(#glow)"/>
    <circle cx="128" cy="128" r="118" fill="transparent" stroke="#334155" stroke-width="2"/>
    <!-- Stars -->
    <circle cx="60" cy="70" r="3" fill="white" opacity="0.8"/>
    <circle cx="190" cy="200" r="3" fill="white" opacity="0.8"/>
    <circle cx="100" cy="210" r="2" fill="white" opacity="0.7"/>
    <circle cx="210" cy="90" r="2" fill="white" opacity="0.7"/>
    <circle cx="80" cy="150" r="1.5" fill="white" opacity="0.6"/>
    <circle cx="170" cy="120" r="1.5" fill="white" opacity="0.6"/>
    <circle cx="50" cy="180" r="1" fill="white" opacity="0.5"/>
    <circle cx="200" cy="50" r="1" fill="white" opacity="0.5"/>
    <g style="filter: drop-shadow(0 0 8px rgba(255, 255, 255, 0.3));">
        <g transform="translate(128, 128) scale(0.9) translate(-128, -128)">
  <!-- Authentic Google BigQuery logo -->
  <g>
    <!-- Data table visualization -->
    <rect x="80" y="96" width="96" height="64" rx="6" fill="none" stroke="#4285F4" stroke-width="4"/>
    
    <!-- Table rows -->
    <line x1="80" y1="112" x2="176" y2="112" stroke="#4285F4" stroke-width="2"/>
    <line x1="80" y1="128" x2="176" y2="128" stroke="#4285F4" stroke-width="2"/>
    <line x1="80" y1="144" x2="176" y2="144" stroke="#4285F4" stroke-width="2"/>
    
    <!-- Table columns -->
    <line x1="112" y1="96" x2="112" y2="160" stroke="#4285F4" stroke-width="2"/>
    <line x1="144" y1="96" x2="144" y2="160" stroke="#4285F4" stroke-width="2"/>
    
    <!-- Query symbol -->
    <circle cx="120" cy="68" r="8" fill="none" stroke="#EA4335" stroke-width="4"/>
    <path d="M126 74 L134 82" stroke="#EA4335" stroke-width="4" stroke-linecap="round"/>
    
    <!-- Data points -->
    <circle cx="96" cy="104" r="3" fill="#FBBC04"/>
    <circle cx="128" cy="104" r="3" fill="#FBBC04"/>
    <circle cx="160" cy="104" r="3" fill="#FBBC04"/>
    
    <circle cx="96" cy="120" r="3" fill="#34A853"/>
    <circle cx="128" cy="120" r="3" fill="#34A853"/>
    <circle cx="160" cy="120" r="3" fill="#34A853"/>
    
    <circle cx="96" cy="136" r="3" fill="#4285F4"/>
    <circle cx="128" cy="136" r="3" fill="#4285F4"/>
    <circle cx="160" cy="136" r="3" fill="#4285F4"/>
  </g>
  
  <!-- Extremely subtle glow effect (5% drift) -->
  <circle cx="128" cy="128" r="120" fill="none" stroke="#4285F4" stroke-width="0.5" opacity="0.05" />
</g>
    </g>
</svg>
