<svg width="256" height="256" viewBox="0 0 256 256" fill="none" xmlns="http://www.w3.org/2000/svg">
    <defs>
        <radialGradient id="grad1" cx="50%" cy="50%" r="50%" fx="50%" fy="50%">
            <stop offset="0%" style="stop-color:#1e293b;stop-opacity:1" />
            <stop offset="100%" style="stop-color:#0f172a;stop-opacity:1" />
        </radialGradient>
        <filter id="glow">
            <feGaussianBlur stdDeviation="3.5" result="coloredBlur"/>
            <feMerge>
                <feMergeNode in="coloredBlur"/>
                <feMergeNode in="SourceGraphic"/>
            </feMerge>
        </filter>
    </defs>
    <circle cx="128" cy="128" r="120" fill="url(#grad1)" filter="url(#glow)"/>
    <circle cx="128" cy="128" r="118" fill="transparent" stroke="#334155" stroke-width="2"/>
    <!-- Stars -->
    <circle cx="60" cy="70" r="3" fill="white" opacity="0.8"/>
    <circle cx="190" cy="200" r="3" fill="white" opacity="0.8"/>
    <circle cx="100" cy="210" r="2" fill="white" opacity="0.7"/>
    <circle cx="210" cy="90" r="2" fill="white" opacity="0.7"/>
    <circle cx="80" cy="150" r="1.5" fill="white" opacity="0.6"/>
    <circle cx="170" cy="120" r="1.5" fill="white" opacity="0.6"/>
    <circle cx="50" cy="180" r="1" fill="white" opacity="0.5"/>
    <circle cx="200" cy="50" r="1" fill="white" opacity="0.5"/>
    <g style="filter: drop-shadow(0 0 8px rgba(255, 255, 255, 0.3));">
        <g transform="translate(128, 128) scale(1.25) translate(-64, -64)">
  <path d="M91.8 20.9c-11.4-11.4-26.6-18-42.7-18C22.6 2.9 2.5 17.9.8 43.1l14.6 8.4c7.2-12.6 21.2-21.3 36.8-21.3 11.2 0 21.5 4.5 28.8 11.8 7.3 7.3 11.4 17.3 11.4 27.7s-4.1 20.4-11.4 27.7c-7.3 7.3-17.6 11.8-28.8 11.8-16.1 0-30-8.8-37.2-21.3l-14.6 8.4c10.1 22.2 32.8 37.2 57.3 37.2 16.1 0 31.3-6.6 42.7-18 11.4-11.4 17.7-27.1 17.7-43.8s-6.4-32.4-17.8-43.8z" fill="#4285f4"/><path d="M58.4 40.8C48.3 18.6 25.6 3.6 1.1 3.6V128c24.5 0 47.2-15 57.3-37.2l14.6-8.4c-7.2 12.6-21.2 21.3-37.2 21.3-11.2 0-21.5-4.5-28.8-11.8C0 84.6 0 74.2 0 64.2s0-20.4 0-27.7C0 24.5 12.3 12.7 28.8 12.7c15.6 0 29.6 8.8 36.8 21.3z" fill="#34a853"/><path d="m61.4 88.6-20.9-20.9 6.2-6.2 14.6 14.6 26.3-26.3 6.2 6.2z" fill="#fbbc05"/>
</g>
    </g>
</svg>
