<svg width="256" height="256" viewBox="0 0 256 256" fill="none" xmlns="http://www.w3.org/2000/svg">
    <defs>
        <radialGradient id="grad1" cx="50%" cy="50%" r="50%" fx="50%" fy="50%">
            <stop offset="0%" style="stop-color:#1e293b;stop-opacity:1" />
            <stop offset="100%" style="stop-color:#0f172a;stop-opacity:1" />
        </radialGradient>
        <filter id="glow">
            <feGaussianBlur stdDeviation="3.5" result="coloredBlur"/>
            <feMerge>
                <feMergeNode in="coloredBlur"/>
                <feMergeNode in="SourceGraphic"/>
            </feMerge>
        </filter>
    </defs>
    <circle cx="128" cy="128" r="120" fill="url(#grad1)" filter="url(#glow)"/>
    <circle cx="128" cy="128" r="118" fill="transparent" stroke="#334155" stroke-width="2"/>
    <!-- Stars -->
    <circle cx="60" cy="70" r="3" fill="white" opacity="0.8"/>
    <circle cx="190" cy="200" r="3" fill="white" opacity="0.8"/>
    <circle cx="100" cy="210" r="2" fill="white" opacity="0.7"/>
    <circle cx="210" cy="90" r="2" fill="white" opacity="0.7"/>
    <circle cx="80" cy="150" r="1.5" fill="white" opacity="0.6"/>
    <circle cx="170" cy="120" r="1.5" fill="white" opacity="0.6"/>
    <circle cx="50" cy="180" r="1" fill="white" opacity="0.5"/>
    <circle cx="200" cy="50" r="1" fill="white" opacity="0.5"/>
    <g style="filter: drop-shadow(0 0 8px rgba(255, 255, 255, 0.3));">
        <g transform="translate(128, 128) scale(0.9) translate(-128, -128)">
  <!-- Authentic Google Cloud Platform logo -->
  <g>
    <!-- Blue section -->
    <path d="M80 90 L128 90 L128 110 L104 134 L80 110 Z" fill="#4285F4"/>
    
    <!-- Red section -->
    <path d="M128 90 L148 110 L128 134 L104 134 L128 110 Z" fill="#EA4335"/>
    
    <!-- Yellow section -->
    <path d="M104 134 L128 134 L128 158 L80 158 L80 110 Z" fill="#FBBC04"/>
    
    <!-- Green section -->
    <path d="M128 134 L148 110 L148 158 L128 158 Z" fill="#34A853"/>
    
    <!-- Central cloud highlight -->
    <circle cx="114" cy="124" r="12" fill="white" opacity="0.2"/>
    
    <!-- Additional cloud details -->
    <circle cx="108" cy="118" r="6" fill="white" opacity="0.1"/>
    <circle cx="120" cy="130" r="6" fill="white" opacity="0.1"/>
  </g>
  
  <!-- Extremely subtle glow effect (5% drift) -->
  <circle cx="128" cy="128" r="120" fill="none" stroke="#4285F4" stroke-width="0.5" opacity="0.05" />
</g>
    </g>
</svg>
