<svg width="64" height="64" viewBox="0 0 64 64" xmlns="http://www.w3.org/2000/svg">
  
  <defs>
    <radialGradient id="bg-gradient" cx="50%" cy="50%" r="50%" fx="50%" fy="50%">
      <stop offset="0%" style="stop-color:#4a5568;stop-opacity:1" />
      <stop offset="100%" style="stop-color:#2d3748;stop-opacity:1" />
    </radialGradient>
    <filter id="drop-shadow" x="-50%" y="-50%" width="200%" height="200%">
      <feDropShadow dx="1" dy="1" stdDeviation="1.5" flood-color="#000000" flood-opacity="0.6"/>
    </filter>
     <filter id="glow" x="-50%" y="-50%" width="200%" height="200%">
      <feGaussianBlur stdDeviation="2" result="coloredBlur"/>
      <feMerge>
        <feMergeNode in="coloredBlur"/>
        <feMergeNode in="SourceGraphic"/>
      </feMerge>
    </filter>
  </defs>
  <circle cx="32" cy="32" r="30" fill="url(#bg-gradient)" />
  <g opacity="0.7">
    <circle cx="10" cy="20" r="1.5" fill="white" opacity="0.8"/><circle cx="55" cy="40" r="1" fill="white" opacity="0.6"/><circle cx="20" cy="50" r="0.8" fill="white" opacity="0.5"/><circle cx="45" cy="15" r="1.2" fill="white" opacity="0.7"/><circle cx="30" cy="10" r="0.5" fill="white" opacity="0.4"/><circle cx="5" cy="45" r="0.7" fill="white" opacity="0.5"/><circle cx="58" cy="12" r="0.6" fill="white" opacity="0.9"/>
  </g>
  <circle cx="32" cy="32" r="29" fill="none" stroke="#8e81f4" stroke-width="1.5" filter="url(#glow)" />

  <g filter="url(#drop-shadow)">
    <g transform="translate(16, 16) scale(0.125)">
      <path d="M176.5 48.3c-22-22-51.5-34.8-82.6-34.8-49.4 0-93.3 29-112.9 71.8l28.2 16.3c14-24.3 41-41.2 72-41.2 21.6 0 41.5 8.7 55.7 22.9 14.2 14.2 22.1 33.4 22.1 53.6s-7.9 39.4-22.1 53.6-34.1 22.9-55.7 22.9c-31.1 0-58-16.9-72-41.2l-28.2 16.3c19.5 42.8 63.4 71.8 112.9 71.8 31.1 0 60.5-12.8 82.6-34.8 22-22 34.2-52.4 34.2-84.7s-12.3-62.7-34.2-84.7z" fill="#4285f4"/>
      <path d="M112.9 77.2c-19.5-42.8-63.4-71.8-112.9-71.8v256c49.4 0 93.3-29 112.9-71.8l28.2-16.3c-14 24.3-41 41.2-72 41.2-21.6 0-41.5-8.7-55.7-22.9-14.2-14.2-22.1-33.4-22.1-53.6s7.9-39.4 22.1-53.6c14.2-14.2 34.1-22.9 55.7-22.9 31.1 0 58 16.9 72 41.2z" fill="#34a853"/>
      <path d="m118.8 171.2-40.4-40.4 12.1-12.1 28.3 28.3 50.9-50.9 12.1 12.1-63 63Z" fill="#039BE5"/>
    </g>
  </g>
</svg>
