<svg width="256" height="256" viewBox="0 0 256 256" fill="none" xmlns="http://www.w3.org/2000/svg">
    <defs>
        <radialGradient id="grad1" cx="50%" cy="50%" r="50%" fx="50%" fy="50%">
            <stop offset="0%" style="stop-color:#1e293b;stop-opacity:1" />
            <stop offset="100%" style="stop-color:#0f172a;stop-opacity:1" />
        </radialGradient>
        <filter id="glow">
            <feGaussianBlur stdDeviation="3.5" result="coloredBlur"/>
            <feMerge>
                <feMergeNode in="coloredBlur"/>
                <feMergeNode in="SourceGraphic"/>
            </feMerge>
        </filter>
    </defs>
    <circle cx="128" cy="128" r="120" fill="url(#grad1)" filter="url(#glow)"/>
    <circle cx="128" cy="128" r="118" fill="transparent" stroke="#334155" stroke-width="2"/>
    <!-- Stars -->
    <circle cx="60" cy="70" r="3" fill="white" opacity="0.8"/>
    <circle cx="190" cy="200" r="3" fill="white" opacity="0.8"/>
    <circle cx="100" cy="210" r="2" fill="white" opacity="0.7"/>
    <circle cx="210" cy="90" r="2" fill="white" opacity="0.7"/>
    <circle cx="80" cy="150" r="1.5" fill="white" opacity="0.6"/>
    <circle cx="170" cy="120" r="1.5" fill="white" opacity="0.6"/>
    <circle cx="50" cy="180" r="1" fill="white" opacity="0.5"/>
    <circle cx="200" cy="50" r="1" fill="white" opacity="0.5"/>
    <g style="filter: drop-shadow(0 0 8px rgba(255, 255, 255, 0.3));">
        <g transform="translate(128, 128) scale(0.8) translate(-24, -24)">
    <!-- GitHub Actions Workflow Logo -->
    <g>
        <!-- Workflow nodes -->
        <circle cx="12" cy="24" r="4" fill="#2088FF"/>
        <circle cx="24" cy="12" r="4" fill="#2088FF"/>
        <circle cx="36" cy="24" r="4" fill="#2088FF"/>
        <circle cx="24" cy="36" r="4" fill="#2088FF"/>
        
        <!-- Workflow connections -->
        <line x1="16" y1="24" x2="20" y2="24" stroke="#2088FF" stroke-width="2"/>
        <line x1="28" y1="24" x2="32" y2="24" stroke="#2088FF" stroke-width="2"/>
        <line x1="24" y1="16" x2="24" y2="20" stroke="#2088FF" stroke-width="2"/>
        <line x1="24" y1="28" x2="24" y2="32" stroke="#2088FF" stroke-width="2"/>
        
        <!-- Action symbols inside nodes -->
        <text x="12" y="28" font-family="monospace" font-size="6" fill="white" text-anchor="middle">1</text>
        <text x="24" y="16" font-family="monospace" font-size="6" fill="white" text-anchor="middle">2</text>
        <text x="36" y="28" font-family="monospace" font-size="6" fill="white" text-anchor="middle">3</text>
        <text x="24" y="40" font-family="monospace" font-size="6" fill="white" text-anchor="middle">✓</text>
        
        <!-- GitHub accent -->
        <circle cx="40" cy="8" r="2" fill="#6E7681"/>
    </g>
</g>
    </g>
</svg>
