<svg width="256" height="256" viewBox="0 0 256 256" fill="none" xmlns="http://www.w3.org/2000/svg">
    <defs>
        <radialGradient id="grad1" cx="50%" cy="50%" r="50%" fx="50%" fy="50%">
            <stop offset="0%" style="stop-color:#1e293b;stop-opacity:1" />
            <stop offset="100%" style="stop-color:#0f172a;stop-opacity:1" />
        </radialGradient>
        <filter id="glow">
            <feGaussianBlur stdDeviation="3.5" result="coloredBlur"/>
            <feMerge>
                <feMergeNode in="coloredBlur"/>
                <feMergeNode in="SourceGraphic"/>
            </feMerge>
        </filter>
    </defs>
    <circle cx="128" cy="128" r="120" fill="url(#grad1)" filter="url(#glow)"/>
    <circle cx="128" cy="128" r="118" fill="transparent" stroke="#334155" stroke-width="2"/>
    <!-- Stars -->
    <circle cx="60" cy="70" r="3" fill="white" opacity="0.8"/>
    <circle cx="190" cy="200" r="3" fill="white" opacity="0.8"/>
    <circle cx="100" cy="210" r="2" fill="white" opacity="0.7"/>
    <circle cx="210" cy="90" r="2" fill="white" opacity="0.7"/>
    <circle cx="80" cy="150" r="1.5" fill="white" opacity="0.6"/>
    <circle cx="170" cy="120" r="1.5" fill="white" opacity="0.6"/>
    <circle cx="50" cy="180" r="1" fill="white" opacity="0.5"/>
    <circle cx="200" cy="50" r="1" fill="white" opacity="0.5"/>
    <g style="filter: drop-shadow(0 0 8px rgba(255, 255, 255, 0.3));">
        <g transform="translate(128, 128) scale(0.9) translate(-128, -128)">
  <!-- Simple, recognizable GitHub Actions workflow -->
  <!-- Workflow nodes -->
  <circle cx="90" cy="120" r="16" fill="#24292E"/>
  <circle cx="128" cy="90" r="16" fill="#24292E"/>
  <circle cx="166" cy="120" r="16" fill="#24292E"/>
  <circle cx="128" cy="150" r="16" fill="#24292E"/>
  
  <!-- Workflow connections -->
  <path d="M106 120 L112 120" stroke="#24292E" stroke-width="4"/>
  <path d="M144 120 L150 120" stroke="#24292E" stroke-width="4"/>
  <path d="M128 106 L128 112" stroke="#24292E" stroke-width="4"/>
  <path d="M128 134 L128 140" stroke="#24292E" stroke-width="4"/>
  
  <!-- Action symbols -->
  <text x="90" y="125" font-family="Arial, sans-serif" font-size="12" font-weight="bold" fill="white" text-anchor="middle">1</text>
  <text x="128" y="95" font-family="Arial, sans-serif" font-size="12" font-weight="bold" fill="white" text-anchor="middle">2</text>
  <text x="166" y="125" font-family="Arial, sans-serif" font-size="12" font-weight="bold" fill="white" text-anchor="middle">3</text>
  <text x="128" y="155" font-family="Arial, sans-serif" font-size="12" font-weight="bold" fill="white" text-anchor="middle">4</text>
  
  <!-- Extremely subtle glow effect (5% drift) -->
  <circle cx="128" cy="128" r="120" fill="none" stroke="#24292E" stroke-width="0.5" opacity="0.05" />
</g>
    </g>
</svg>
