<svg width="256" height="256" viewBox="0 0 256 256" fill="none" xmlns="http://www.w3.org/2000/svg">
    <defs>
        <radialGradient id="grad1" cx="50%" cy="50%" r="50%" fx="50%" fy="50%">
            <stop offset="0%" style="stop-color:#1e293b;stop-opacity:1" />
            <stop offset="100%" style="stop-color:#0f172a;stop-opacity:1" />
        </radialGradient>
        <filter id="glow">
            <feGaussianBlur stdDeviation="3.5" result="coloredBlur"/>
            <feMerge>
                <feMergeNode in="coloredBlur"/>
                <feMergeNode in="SourceGraphic"/>
            </feMerge>
        </filter>
    </defs>
    <circle cx="128" cy="128" r="120" fill="url(#grad1)" filter="url(#glow)"/>
    <circle cx="128" cy="128" r="118" fill="transparent" stroke="#334155" stroke-width="2"/>
    <!-- Stars -->
    <circle cx="60" cy="70" r="3" fill="white" opacity="0.8"/>
    <circle cx="190" cy="200" r="3" fill="white" opacity="0.8"/>
    <circle cx="100" cy="210" r="2" fill="white" opacity="0.7"/>
    <circle cx="210" cy="90" r="2" fill="white" opacity="0.7"/>
    <circle cx="80" cy="150" r="1.5" fill="white" opacity="0.6"/>
    <circle cx="170" cy="120" r="1.5" fill="white" opacity="0.6"/>
    <circle cx="50" cy="180" r="1" fill="white" opacity="0.5"/>
    <circle cx="200" cy="50" r="1" fill="white" opacity="0.5"/>
    <g style="filter: drop-shadow(0 0 8px rgba(255, 255, 255, 0.3));">
        <g transform="translate(128, 128) scale(0.6) translate(-32, -32)">
    <!-- Kubernetes Helm Wheel -->
    <g fill="#326CE5">
        <!-- Central hub -->
        <circle cx="32" cy="32" r="4" fill="#326CE5"/>
        
        <!-- Main spokes (6 spokes total) -->
        <!-- Top spoke -->
        <path d="M32 8 L29 18 L35 18 Z" fill="#326CE5"/>
        <rect x="30" y="18" width="4" height="10" fill="#326CE5"/>
        
        <!-- Top-right spoke -->
        <g transform="rotate(60 32 32)">
            <path d="M32 8 L29 18 L35 18 Z" fill="#326CE5"/>
            <rect x="30" y="18" width="4" height="10" fill="#326CE5"/>
        </g>
        
        <!-- Bottom-right spoke -->
        <g transform="rotate(120 32 32)">
            <path d="M32 8 L29 18 L35 18 Z" fill="#326CE5"/>
            <rect x="30" y="18" width="4" height="10" fill="#326CE5"/>
        </g>
        
        <!-- Bottom spoke -->
        <g transform="rotate(180 32 32)">
            <path d="M32 8 L29 18 L35 18 Z" fill="#326CE5"/>
            <rect x="30" y="18" width="4" height="10" fill="#326CE5"/>
        </g>
        
        <!-- Bottom-left spoke -->
        <g transform="rotate(240 32 32)">
            <path d="M32 8 L29 18 L35 18 Z" fill="#326CE5"/>
            <rect x="30" y="18" width="4" height="10" fill="#326CE5"/>
        </g>
        
        <!-- Top-left spoke -->
        <g transform="rotate(300 32 32)">
            <path d="M32 8 L29 18 L35 18 Z" fill="#326CE5"/>
            <rect x="30" y="18" width="4" height="10" fill="#326CE5"/>
        </g>
        
        <!-- Outer ring -->
        <circle cx="32" cy="32" r="26" fill="none" stroke="#326CE5" stroke-width="2"/>
        
        <!-- Small circle decorations at spoke ends -->
        <circle cx="32" cy="6" r="2" fill="#326CE5"/>
        <circle cx="54.5" cy="19" r="2" fill="#326CE5"/>
        <circle cx="54.5" cy="45" r="2" fill="#326CE5"/>
        <circle cx="32" cy="58" r="2" fill="#326CE5"/>
        <circle cx="9.5" cy="45" r="2" fill="#326CE5"/>
        <circle cx="9.5" cy="19" r="2" fill="#326CE5"/>
    </g>
</g>
    </g>
</svg>
