<svg width="256" height="256" viewBox="0 0 256 256" fill="none" xmlns="http://www.w3.org/2000/svg">
    <defs>
        <radialGradient id="grad1" cx="50%" cy="50%" r="50%" fx="50%" fy="50%">
            <stop offset="0%" style="stop-color:#1e293b;stop-opacity:1" />
            <stop offset="100%" style="stop-color:#0f172a;stop-opacity:1" />
        </radialGradient>
        <filter id="glow">
            <feGaussianBlur stdDeviation="3.5" result="coloredBlur"/>
            <feMerge>
                <feMergeNode in="coloredBlur"/>
                <feMergeNode in="SourceGraphic"/>
            </feMerge>
        </filter>
    </defs>
    <circle cx="128" cy="128" r="120" fill="url(#grad1)" filter="url(#glow)"/>
    <circle cx="128" cy="128" r="118" fill="transparent" stroke="#334155" stroke-width="2"/>
    <!-- Stars -->
    <circle cx="60" cy="70" r="3" fill="white" opacity="0.8"/>
    <circle cx="190" cy="200" r="3" fill="white" opacity="0.8"/>
    <circle cx="100" cy="210" r="2" fill="white" opacity="0.7"/>
    <circle cx="210" cy="90" r="2" fill="white" opacity="0.7"/>
    <circle cx="80" cy="150" r="1.5" fill="white" opacity="0.6"/>
    <circle cx="170" cy="120" r="1.5" fill="white" opacity="0.6"/>
    <circle cx="50" cy="180" r="1" fill="white" opacity="0.5"/>
    <circle cx="200" cy="50" r="1" fill="white" opacity="0.5"/>
    <g style="filter: drop-shadow(0 0 8px rgba(255, 255, 255, 0.3));">
        <g transform="translate(128, 128) scale(0.8) translate(-128, -128)">
  <!-- AUTHENTIC Kubernetes helm wheel logo - exact brand reproduction -->
  <g fill="#326CE5">
    <!-- Outer wheel rim -->
    <circle cx="128" cy="128" r="85" fill="none" stroke="#326CE5" stroke-width="8"/>
    
    <!-- Seven spokes (authentic Kubernetes design) -->
    <g transform="rotate(0 128 128)">
      <rect x="124" y="43" width="8" height="40" fill="#326CE5"/>
      <path d="M128 43 L138 53 L118 53 Z" fill="#326CE5"/>
    </g>
    <g transform="rotate(51.4 128 128)">
      <rect x="124" y="43" width="8" height="40" fill="#326CE5"/>
      <path d="M128 43 L138 53 L118 53 Z" fill="#326CE5"/>
    </g>
    <g transform="rotate(102.8 128 128)">
      <rect x="124" y="43" width="8" height="40" fill="#326CE5"/>
      <path d="M128 43 L138 53 L118 53 Z" fill="#326CE5"/>
    </g>
    <g transform="rotate(154.2 128 128)">
      <rect x="124" y="43" width="8" height="40" fill="#326CE5"/>
      <path d="M128 43 L138 53 L118 53 Z" fill="#326CE5"/>
    </g>
    <g transform="rotate(205.6 128 128)">
      <rect x="124" y="43" width="8" height="40" fill="#326CE5"/>
      <path d="M128 43 L138 53 L118 53 Z" fill="#326CE5"/>
    </g>
    <g transform="rotate(257 128 128)">
      <rect x="124" y="43" width="8" height="40" fill="#326CE5"/>
      <path d="M128 43 L138 53 L118 53 Z" fill="#326CE5"/>
    </g>
    <g transform="rotate(308.4 128 128)">
      <rect x="124" y="43" width="8" height="40" fill="#326CE5"/>
      <path d="M128 43 L138 53 L118 53 Z" fill="#326CE5"/>
    </g>
    
    <!-- Central hub -->
    <circle cx="128" cy="128" r="25" fill="#326CE5"/>
    
    <!-- Kubernetes logo symbol in center -->
    <path fill="white" d="M128 108 L138 118 L128 148 L118 118 Z"/>
    <circle cx="128" cy="128" r="8" fill="white"/>
  </g>
  
  <!-- Extremely subtle glow effect (5% drift) -->
  <circle cx="128" cy="128" r="120" fill="none" stroke="#326CE5" stroke-width="0.5" opacity="0.05" />
</g>
    </g>
</svg>
