<svg width="256" height="256" viewBox="0 0 256 256" fill="none" xmlns="http://www.w3.org/2000/svg">
    <defs>
        <radialGradient id="grad1" cx="50%" cy="50%" r="50%" fx="50%" fy="50%">
            <stop offset="0%" style="stop-color:#1e293b;stop-opacity:1" />
            <stop offset="100%" style="stop-color:#0f172a;stop-opacity:1" />
        </radialGradient>
        <filter id="glow">
            <feGaussianBlur stdDeviation="3.5" result="coloredBlur"/>
            <feMerge>
                <feMergeNode in="coloredBlur"/>
                <feMergeNode in="SourceGraphic"/>
            </feMerge>
        </filter>
    </defs>
    <circle cx="128" cy="128" r="120" fill="url(#grad1)" filter="url(#glow)"/>
    <circle cx="128" cy="128" r="118" fill="transparent" stroke="#334155" stroke-width="2"/>
    <!-- Stars -->
    <circle cx="60" cy="70" r="3" fill="white" opacity="0.8"/>
    <circle cx="190" cy="200" r="3" fill="white" opacity="0.8"/>
    <circle cx="100" cy="210" r="2" fill="white" opacity="0.7"/>
    <circle cx="210" cy="90" r="2" fill="white" opacity="0.7"/>
    <circle cx="80" cy="150" r="1.5" fill="white" opacity="0.6"/>
    <circle cx="170" cy="120" r="1.5" fill="white" opacity="0.6"/>
    <circle cx="50" cy="180" r="1" fill="white" opacity="0.5"/>
    <circle cx="200" cy="50" r="1" fill="white" opacity="0.5"/>
    <g style="filter: drop-shadow(0 0 8px rgba(255, 255, 255, 0.3));">
        <g transform="translate(128, 128) scale(0.9) translate(-128, -128)">
  <!-- Authentic Kubernetes helm wheel -->
  <g fill="#326CE5">
    <!-- Central hub -->
    <circle cx="128" cy="128" r="12" fill="#326CE5"/>
    
    <!-- Main spokes (6 spokes total) -->
    <!-- Top spoke -->
    <path d="M128 60 L120 90 L136 90 Z" fill="#326CE5"/>
    <rect x="124" y="90" width="8" height="26" fill="#326CE5"/>
    
    <!-- Top-right spoke -->
    <g transform="rotate(60 128 128)">
      <path d="M128 60 L120 90 L136 90 Z" fill="#326CE5"/>
      <rect x="124" y="90" width="8" height="26" fill="#326CE5"/>
    </g>
    
    <!-- Bottom-right spoke -->
    <g transform="rotate(120 128 128)">
      <path d="M128 60 L120 90 L136 90 Z" fill="#326CE5"/>
      <rect x="124" y="90" width="8" height="26" fill="#326CE5"/>
    </g>
    
    <!-- Bottom spoke -->
    <g transform="rotate(180 128 128)">
      <path d="M128 60 L120 90 L136 90 Z" fill="#326CE5"/>
      <rect x="124" y="90" width="8" height="26" fill="#326CE5"/>
    </g>
    
    <!-- Bottom-left spoke -->
    <g transform="rotate(240 128 128)">
      <path d="M128 60 L120 90 L136 90 Z" fill="#326CE5"/>
      <rect x="124" y="90" width="8" height="26" fill="#326CE5"/>
    </g>
    
    <!-- Top-left spoke -->
    <g transform="rotate(300 128 128)">
      <path d="M128 60 L120 90 L136 90 Z" fill="#326CE5"/>
      <rect x="124" y="90" width="8" height="26" fill="#326CE5"/>
    </g>
    
    <!-- Outer ring -->
    <circle cx="128" cy="128" r="54" fill="none" stroke="#326CE5" stroke-width="4"/>
    
    <!-- Spoke end circles -->
    <circle cx="128" cy="70" r="4" fill="#326CE5"/>
    <circle cx="178" cy="98" r="4" fill="#326CE5"/>
    <circle cx="178" cy="158" r="4" fill="#326CE5"/>
    <circle cx="128" cy="186" r="4" fill="#326CE5"/>
    <circle cx="78" cy="158" r="4" fill="#326CE5"/>
    <circle cx="78" cy="98" r="4" fill="#326CE5"/>
  </g>
  
  <!-- Extremely subtle glow effect (5% drift) -->
  <circle cx="128" cy="128" r="120" fill="none" stroke="#326CE5" stroke-width="0.5" opacity="0.05" />
</g>
    </g>
</svg>
