<svg width="256" height="256" viewBox="0 0 256 256" fill="none" xmlns="http://www.w3.org/2000/svg">
    <defs>
        <radialGradient id="grad1" cx="50%" cy="50%" r="50%" fx="50%" fy="50%">
            <stop offset="0%" style="stop-color:#1e293b;stop-opacity:1" />
            <stop offset="100%" style="stop-color:#0f172a;stop-opacity:1" />
        </radialGradient>
        <filter id="glow">
            <feGaussianBlur stdDeviation="3.5" result="coloredBlur"/>
            <feMerge>
                <feMergeNode in="coloredBlur"/>
                <feMergeNode in="SourceGraphic"/>
            </feMerge>
        </filter>
    </defs>
    <circle cx="128" cy="128" r="120" fill="url(#grad1)" filter="url(#glow)"/>
    <circle cx="128" cy="128" r="118" fill="transparent" stroke="#334155" stroke-width="2"/>
    <!-- Stars -->
    <circle cx="60" cy="70" r="3" fill="white" opacity="0.8"/>
    <circle cx="190" cy="200" r="3" fill="white" opacity="0.8"/>
    <circle cx="100" cy="210" r="2" fill="white" opacity="0.7"/>
    <circle cx="210" cy="90" r="2" fill="white" opacity="0.7"/>
    <circle cx="80" cy="150" r="1.5" fill="white" opacity="0.6"/>
    <circle cx="170" cy="120" r="1.5" fill="white" opacity="0.6"/>
    <circle cx="50" cy="180" r="1" fill="white" opacity="0.5"/>
    <circle cx="200" cy="50" r="1" fill="white" opacity="0.5"/>
    <g style="filter: drop-shadow(0 0 8px rgba(255, 255, 255, 0.3));">
        <g transform="translate(128, 128) scale(0.8) translate(-128, -128)">
  <!-- Authentic MongoDB leaf logo -->
  <path fill="#4DB33D" d="M128 0C128 0 168.889 42.667 168.889 96S128 170.667 128 170.667S87.111 149.333 87.111 96S128 0 128 0z"/>
  <path fill="#599636" d="M128 0C128 0 168.889 42.667 168.889 96S128 170.667 128 170.667V0z"/>
  <path fill="#4DB33D" d="M128 170.667C128 170.667 98.667 149.333 98.667 128S128 106.667 128 106.667V170.667z"/>
  <path fill="#599636" d="M128 170.667C128 170.667 157.333 149.333 157.333 128S128 106.667 128 106.667V170.667z"/>
  <path fill="#4DB33D" d="M128 106.667V256C128 256 113.333 234.667 113.333 213.333S128 192 128 192V106.667z"/>
  <path fill="#599636" d="M128 106.667V256C128 256 142.667 234.667 142.667 213.333S128 192 128 192V106.667z"/>
  
  <!-- Extremely subtle glow effect (5% drift) -->
  <circle cx="128" cy="128" r="120" fill="none" stroke="#4DB33D" stroke-width="0.5" opacity="0.05" />
</g>
    </g>
</svg>
