<svg width="256" height="256" viewBox="0 0 256 256" fill="none" xmlns="http://www.w3.org/2000/svg">
    <defs>
        <radialGradient id="grad1" cx="50%" cy="50%" r="50%" fx="50%" fy="50%">
            <stop offset="0%" style="stop-color:#1e293b;stop-opacity:1" />
            <stop offset="100%" style="stop-color:#0f172a;stop-opacity:1" />
        </radialGradient>
        <filter id="glow">
            <feGaussianBlur stdDeviation="3.5" result="coloredBlur"/>
            <feMerge>
                <feMergeNode in="coloredBlur"/>
                <feMergeNode in="SourceGraphic"/>
            </feMerge>
        </filter>
    </defs>
    <circle cx="128" cy="128" r="120" fill="url(#grad1)" filter="url(#glow)"/>
    <circle cx="128" cy="128" r="118" fill="transparent" stroke="#334155" stroke-width="2"/>
    <!-- Stars -->
    <circle cx="60" cy="70" r="3" fill="white" opacity="0.8"/>
    <circle cx="190" cy="200" r="3" fill="white" opacity="0.8"/>
    <circle cx="100" cy="210" r="2" fill="white" opacity="0.7"/>
    <circle cx="210" cy="90" r="2" fill="white" opacity="0.7"/>
    <circle cx="80" cy="150" r="1.5" fill="white" opacity="0.6"/>
    <circle cx="170" cy="120" r="1.5" fill="white" opacity="0.6"/>
    <circle cx="50" cy="180" r="1" fill="white" opacity="0.5"/>
    <circle cx="200" cy="50" r="1" fill="white" opacity="0.5"/>
    <g style="filter: drop-shadow(0 0 8px rgba(255, 255, 255, 0.3));">
        <g transform="translate(128, 128) scale(0.8) translate(-128, -128)">
  <!-- Authentic MySQL dolphin logo -->
  <circle cx="128" cy="128" r="120" fill="#00758F"/>
  
  <!-- MySQL dolphin simplified -->
  <path fill="#E97627" d="M80 120c0-20 16-36 36-36s36 16 36 36c0 8-3 15-8 21l20 20c8-12 12-26 12-41 0-40-32-72-72-72s-72 32-72 72c0 15 4 29 12 41l20-20c-5-6-8-13-8-21z"/>
  <path fill="#E97627" d="M116 84c-20 0-36 16-36 36s16 36 36 36c8 0 15-3 21-8l20 20c-12 8-26 12-41 12-40 0-72-32-72-72s32-72 72-72c15 0 29 4 41 12l-20 20c-6-5-13-8-21-8z"/>
  
  <!-- MySQL text -->
  <text x="128" y="200" font-family="Arial, sans-serif" font-size="32" font-weight="bold" fill="#FFF" text-anchor="middle">MySQL</text>
  
  <!-- Extremely subtle glow effect (5% drift) -->
  <circle cx="128" cy="128" r="120" fill="none" stroke="#00758F" stroke-width="0.5" opacity="0.05" />
</g>
    </g>
</svg>
