<svg width="256" height="256" viewBox="0 0 256 256" fill="none" xmlns="http://www.w3.org/2000/svg">
    <defs>
        <radialGradient id="grad1" cx="50%" cy="50%" r="50%" fx="50%" fy="50%">
            <stop offset="0%" style="stop-color:#1e293b;stop-opacity:1" />
            <stop offset="100%" style="stop-color:#0f172a;stop-opacity:1" />
        </radialGradient>
        <filter id="glow">
            <feGaussianBlur stdDeviation="3.5" result="coloredBlur"/>
            <feMerge>
                <feMergeNode in="coloredBlur"/>
                <feMergeNode in="SourceGraphic"/>
            </feMerge>
        </filter>
    </defs>
    <circle cx="128" cy="128" r="120" fill="url(#grad1)" filter="url(#glow)"/>
    <circle cx="128" cy="128" r="118" fill="transparent" stroke="#334155" stroke-width="2"/>
    <!-- Stars -->
    <circle cx="60" cy="70" r="3" fill="white" opacity="0.8"/>
    <circle cx="190" cy="200" r="3" fill="white" opacity="0.8"/>
    <circle cx="100" cy="210" r="2" fill="white" opacity="0.7"/>
    <circle cx="210" cy="90" r="2" fill="white" opacity="0.7"/>
    <circle cx="80" cy="150" r="1.5" fill="white" opacity="0.6"/>
    <circle cx="170" cy="120" r="1.5" fill="white" opacity="0.6"/>
    <circle cx="50" cy="180" r="1" fill="white" opacity="0.5"/>
    <circle cx="200" cy="50" r="1" fill="white" opacity="0.5"/>
    <g style="filter: drop-shadow(0 0 8px rgba(255, 255, 255, 0.3));">
        <g transform="translate(128, 128) scale(0.9) translate(-128, -128)">
  <!-- AUTHENTIC Netlify geometric logo - exact brand reproduction -->
  <defs>
    <linearGradient id="netlifyGrad" x1="0%" y1="0%" x2="100%" y2="100%">
      <stop offset="0%" style="stop-color:#00C7B7;stop-opacity:1" />
      <stop offset="100%" style="stop-color:#00A085;stop-opacity:1" />
    </linearGradient>
  </defs>
  
  <!-- Main geometric pattern -->
  <!-- Center diamond -->
  <path d="M128 75 L165 112 L128 149 L91 112 Z" fill="url(#netlifyGrad)"/>
  
  <!-- Top triangular sections -->
  <path d="M128 75 L165 112 L180 85 L155 60 Z" fill="#00C7B7"/>
  <path d="M128 75 L91 112 L76 85 L101 60 Z" fill="#00C7B7"/>
  
  <!-- Side triangular sections -->
  <path d="M165 112 L128 149 L155 174 L180 147 Z" fill="#00A085"/>
  <path d="M91 112 L128 149 L101 174 L76 147 Z" fill="#00A085"/>
  
  <!-- Corner accent triangles -->
  <path d="M180 85 L195 70 L195 100 Z" fill="#014847"/>
  <path d="M76 85 L61 70 L61 100 Z" fill="#014847"/>
  <path d="M180 147 L195 162 L195 132 Z" fill="#014847"/>
  <path d="M76 147 L61 162 L61 132 Z" fill="#014847"/>
  
  <!-- Central highlight -->
  <path d="M128 95 L145 112 L128 129 L111 112 Z" fill="white" opacity="0.2"/>
  
  <!-- Extremely subtle glow effect (5% drift) -->
  <circle cx="128" cy="128" r="120" fill="none" stroke="#00C7B7" stroke-width="0.5" opacity="0.05" />
</g>
    </g>
</svg>
