<svg width="256" height="256" viewBox="0 0 256 256" fill="none" xmlns="http://www.w3.org/2000/svg">
    <defs>
        <radialGradient id="grad1" cx="50%" cy="50%" r="50%" fx="50%" fy="50%">
            <stop offset="0%" style="stop-color:#1e293b;stop-opacity:1" />
            <stop offset="100%" style="stop-color:#0f172a;stop-opacity:1" />
        </radialGradient>
        <filter id="glow">
            <feGaussianBlur stdDeviation="3.5" result="coloredBlur"/>
            <feMerge>
                <feMergeNode in="coloredBlur"/>
                <feMergeNode in="SourceGraphic"/>
            </feMerge>
        </filter>
    </defs>
    <circle cx="128" cy="128" r="120" fill="url(#grad1)" filter="url(#glow)"/>
    <circle cx="128" cy="128" r="118" fill="transparent" stroke="#334155" stroke-width="2"/>
    <!-- Stars -->
    <circle cx="60" cy="70" r="3" fill="white" opacity="0.8"/>
    <circle cx="190" cy="200" r="3" fill="white" opacity="0.8"/>
    <circle cx="100" cy="210" r="2" fill="white" opacity="0.7"/>
    <circle cx="210" cy="90" r="2" fill="white" opacity="0.7"/>
    <circle cx="80" cy="150" r="1.5" fill="white" opacity="0.6"/>
    <circle cx="170" cy="120" r="1.5" fill="white" opacity="0.6"/>
    <circle cx="50" cy="180" r="1" fill="white" opacity="0.5"/>
    <circle cx="200" cy="50" r="1" fill="white" opacity="0.5"/>
    <g style="filter: drop-shadow(0 0 8px rgba(255, 255, 255, 0.3));">
        <g transform="translate(128, 128) scale(0.8) translate(-20, -20)">
    <!-- Netlify Geometric Logo -->
    <g fill="#00C7B7">
        <!-- Main diamond shape -->
        <path d="M20 12 L28 20 L20 28 L12 20 Z" fill="#00C7B7"/>
        
        <!-- Side triangles -->
        <path d="M28 20 L36 16 L36 24 Z" fill="#00C7B7"/>
        <path d="M12 20 L4 16 L4 24 Z" fill="#00C7B7"/>
        <path d="M20 12 L16 4 L24 4 Z" fill="#00C7B7"/>
        <path d="M20 28 L16 36 L24 36 Z" fill="#00C7B7"/>
        
        <!-- Corner accents -->
        <path d="M28 12 L32 8 L32 16 Z" fill="#00C7B7" opacity="0.8"/>
        <path d="M28 28 L32 32 L32 24 Z" fill="#00C7B7" opacity="0.8"/>
        <path d="M12 12 L8 8 L8 16 Z" fill="#00C7B7" opacity="0.8"/>
        <path d="M12 28 L8 32 L8 24 Z" fill="#00C7B7" opacity="0.8"/>
    </g>
</g>
    </g>
</svg>
