<svg width="256" height="256" viewBox="0 0 256 256" fill="none" xmlns="http://www.w3.org/2000/svg">
    <defs>
        <radialGradient id="grad1" cx="50%" cy="50%" r="50%" fx="50%" fy="50%">
            <stop offset="0%" style="stop-color:#1e293b;stop-opacity:1" />
            <stop offset="100%" style="stop-color:#0f172a;stop-opacity:1" />
        </radialGradient>
        <filter id="glow">
            <feGaussianBlur stdDeviation="3.5" result="coloredBlur"/>
            <feMerge>
                <feMergeNode in="coloredBlur"/>
                <feMergeNode in="SourceGraphic"/>
            </feMerge>
        </filter>
    </defs>
    <circle cx="128" cy="128" r="120" fill="url(#grad1)" filter="url(#glow)"/>
    <circle cx="128" cy="128" r="118" fill="transparent" stroke="#334155" stroke-width="2"/>
    <!-- Stars -->
    <circle cx="60" cy="70" r="3" fill="white" opacity="0.8"/>
    <circle cx="190" cy="200" r="3" fill="white" opacity="0.8"/>
    <circle cx="100" cy="210" r="2" fill="white" opacity="0.7"/>
    <circle cx="210" cy="90" r="2" fill="white" opacity="0.7"/>
    <circle cx="80" cy="150" r="1.5" fill="white" opacity="0.6"/>
    <circle cx="170" cy="120" r="1.5" fill="white" opacity="0.6"/>
    <circle cx="50" cy="180" r="1" fill="white" opacity="0.5"/>
    <circle cx="200" cy="50" r="1" fill="white" opacity="0.5"/>
    <g style="filter: drop-shadow(0 0 8px rgba(255, 255, 255, 0.3));">
        <g transform="translate(128, 128) scale(0.9) translate(-128, -128)">
  <!-- Authentic Netlify geometric logo -->
  <g fill="#00C7B7">
    <!-- Main diamond shape -->
    <path d="M128 80 L148 128 L128 176 L108 128 Z" fill="#00C7B7"/>
    
    <!-- Side triangles -->
    <path d="M148 128 L176 108 L176 148 Z" fill="#00C7B7"/>
    <path d="M108 128 L80 108 L80 148 Z" fill="#00C7B7"/>
    <path d="M128 80 L108 60 L148 60 Z" fill="#00C7B7"/>
    <path d="M128 176 L108 196 L148 196 Z" fill="#00C7B7"/>
    
    <!-- Corner accents -->
    <path d="M148 80 L168 60 L168 108 Z" fill="#00C7B7" opacity="0.8"/>
    <path d="M148 176 L168 196 L168 148 Z" fill="#00C7B7" opacity="0.8"/>
    <path d="M108 80 L88 60 L88 108 Z" fill="#00C7B7" opacity="0.8"/>
    <path d="M108 176 L88 196 L88 148 Z" fill="#00C7B7" opacity="0.8"/>
  </g>
  
  <!-- Extremely subtle glow effect (5% drift) -->
  <circle cx="128" cy="128" r="120" fill="none" stroke="#00C7B7" stroke-width="0.5" opacity="0.05" />
</g>
    </g>
</svg>
