<svg width="256" height="256" viewBox="0 0 256 256" fill="none" xmlns="http://www.w3.org/2000/svg">
    <defs>
        <radialGradient id="grad1" cx="50%" cy="50%" r="50%" fx="50%" fy="50%">
            <stop offset="0%" style="stop-color:#1e293b;stop-opacity:1" />
            <stop offset="100%" style="stop-color:#0f172a;stop-opacity:1" />
        </radialGradient>
        <filter id="glow">
            <feGaussianBlur stdDeviation="3.5" result="coloredBlur"/>
            <feMerge>
                <feMergeNode in="coloredBlur"/>
                <feMergeNode in="SourceGraphic"/>
            </feMerge>
        </filter>
    </defs>
    <circle cx="128" cy="128" r="120" fill="url(#grad1)" filter="url(#glow)"/>
    <circle cx="128" cy="128" r="118" fill="transparent" stroke="#334155" stroke-width="2"/>
    <!-- Stars -->
    <circle cx="60" cy="70" r="3" fill="white" opacity="0.8"/>
    <circle cx="190" cy="200" r="3" fill="white" opacity="0.8"/>
    <circle cx="100" cy="210" r="2" fill="white" opacity="0.7"/>
    <circle cx="210" cy="90" r="2" fill="white" opacity="0.7"/>
    <circle cx="80" cy="150" r="1.5" fill="white" opacity="0.6"/>
    <circle cx="170" cy="120" r="1.5" fill="white" opacity="0.6"/>
    <circle cx="50" cy="180" r="1" fill="white" opacity="0.5"/>
    <circle cx="200" cy="50" r="1" fill="white" opacity="0.5"/>
    <g style="filter: drop-shadow(0 0 8px rgba(255, 255, 255, 0.3));">
        <g transform="translate(128, 128) scale(1.25) translate(-64, -64)">
  <path d="M64 128A64 64 0 1 0 64 0a64 64 0 1 0 0 128z" fill="#000"/>
  <path d="M92.1 46.2c-2.8-2.2-6.3-3.4-10.2-3.4-3.9 0-7.5.9-10.8 2.8-3.3 1.8-6 4.5-8 7.9l.2.2c8.6-5.4 19.4-5.2 27.8.6 2.3 1.6 4.2 3.7 5.6 6.2 2.2 4 3.4 8.6 3.4 13.4v29.4h-9.5V74.2c0-8.8-4.8-16.4-12.2-20.3-7.6-4-16.8-3.6-24 .9-3.2 2-6 4.8-8 8.1-4.7 7.9-5.8 17.6-2.9 26.5 2.8 8.6 9.8 15.3 18.8 17.1 2.3.5 4.6.7 6.9.7 4.9 0 9.7-1.3 14-3.9v-4.2c-4.4 3.4-9.8 4.7-15.1 3.5-9-2.1-16-9.6-17.6-18.5-1.1-6.1.7-12.2 4.4-16.9 2.3-2.9 5.3-5.2 8.7-6.5 7.9-3.1 16.8-.7 22.6 5.5.9 1 1.7 2.1 2.4 3.2v-8.1zm-32.9 52h-9.5V49.7h9.5v48.5z" fill="#fff"/>
</g>
    </g>
</svg>
