<svg width="256" height="256" viewBox="0 0 256 256" fill="none" xmlns="http://www.w3.org/2000/svg">
    <defs>
        <radialGradient id="grad1" cx="50%" cy="50%" r="50%" fx="50%" fy="50%">
            <stop offset="0%" style="stop-color:#1e293b;stop-opacity:1" />
            <stop offset="100%" style="stop-color:#0f172a;stop-opacity:1" />
        </radialGradient>
        <filter id="glow">
            <feGaussianBlur stdDeviation="3.5" result="coloredBlur"/>
            <feMerge>
                <feMergeNode in="coloredBlur"/>
                <feMergeNode in="SourceGraphic"/>
            </feMerge>
        </filter>
    </defs>
    <circle cx="128" cy="128" r="120" fill="url(#grad1)" filter="url(#glow)"/>
    <circle cx="128" cy="128" r="118" fill="transparent" stroke="#334155" stroke-width="2"/>
    <!-- Stars -->
    <circle cx="60" cy="70" r="3" fill="white" opacity="0.8"/>
    <circle cx="190" cy="200" r="3" fill="white" opacity="0.8"/>
    <circle cx="100" cy="210" r="2" fill="white" opacity="0.7"/>
    <circle cx="210" cy="90" r="2" fill="white" opacity="0.7"/>
    <circle cx="80" cy="150" r="1.5" fill="white" opacity="0.6"/>
    <circle cx="170" cy="120" r="1.5" fill="white" opacity="0.6"/>
    <circle cx="50" cy="180" r="1" fill="white" opacity="0.5"/>
    <circle cx="200" cy="50" r="1" fill="white" opacity="0.5"/>
    <g style="filter: drop-shadow(0 0 8px rgba(255, 255, 255, 0.3));">
        <g transform="translate(128, 128) scale(1.25) translate(-64, -64)">
  <path d="M61 128.001c-5.523 0-10.45-2.03-14.3-5.59L6.5 73.11c-1.3-1.1-2.1-2.7-2.1-4.4V59.412c0-3.3 2.1-6.3 5.3-7.5L52.5 35.81c3.2-1.3 6.9-1.3 10.2 0l42.8 16.102c3.2 1.199 5.3 4.2 5.3 7.5v13.698c0 1.7-.8 3.3-2.1 4.4l-40.2 49.301c-3.85 3.56-8.777 5.59-14.3 5.59zM28.4 69.112l32.7 40.201c.4.5.9.7 1.4.7s1.1-.2 1.4-.7l32.7-40.201V62.71L64.1 49.11c-.5-.2-1.1-.2-1.6 0L28.4 62.71v6.402z" fill="#68a063"/>
  <path d="m116.1 29.81-12.6-4.7c-2.8-1-5.9-1-8.7 0L52 41.212V21.01c0-2.2-1.8-4-4-4H32.2c-2.2 0-4 1.8-4 4v34.4l-14.4 5.4c-2.8 1-4.5 3.8-4.5 6.9V82.21c0 2.2 1.8 4 4 4h15.8c2.2 0 4-1.8 4-4v-34.4l42.8-16.1c.9-.4 2-.4 2.9 0l12.6 4.7c1 .4 1.6 1.3 1.6 2.4V82.21c0 2.2-1.8 4-4 4H94.1c-2.2 0-4-1.8-4-4V57.312c0-2.2 1.8-4 4-4h.3c2.2 0 4-1.8 4-4s-1.8-4-4-4h-.3c-2.2 0-4-1.8-4-4s1.8-4 4-4h.3c2.2 0 4-1.8 4-4s-1.8-4-4-4h-.3c-5.7 0-10.3 4.6-10.3 10.3V82.21c0 5.7 4.6 10.3 10.3 10.3h15.8c5.7 0 10.3-4.6 10.3-10.3V36.712c0-3.1-1.7-5.9-4.5-6.9z" fill="#8cc84b"/>
</g>
    </g>
</svg>
