<svg width="256" height="256" viewBox="0 0 256 256" fill="none" xmlns="http://www.w3.org/2000/svg">
    <defs>
        <radialGradient id="grad1" cx="50%" cy="50%" r="50%" fx="50%" fy="50%">
            <stop offset="0%" style="stop-color:#1e293b;stop-opacity:1" />
            <stop offset="100%" style="stop-color:#0f172a;stop-opacity:1" />
        </radialGradient>
        <filter id="glow">
            <feGaussianBlur stdDeviation="3.5" result="coloredBlur"/>
            <feMerge>
                <feMergeNode in="coloredBlur"/>
                <feMergeNode in="SourceGraphic"/>
            </feMerge>
        </filter>
    </defs>
    <circle cx="128" cy="128" r="120" fill="url(#grad1)" filter="url(#glow)"/>
    <circle cx="128" cy="128" r="118" fill="transparent" stroke="#334155" stroke-width="2"/>
    <!-- Stars -->
    <circle cx="60" cy="70" r="3" fill="white" opacity="0.8"/>
    <circle cx="190" cy="200" r="3" fill="white" opacity="0.8"/>
    <circle cx="100" cy="210" r="2" fill="white" opacity="0.7"/>
    <circle cx="210" cy="90" r="2" fill="white" opacity="0.7"/>
    <circle cx="80" cy="150" r="1.5" fill="white" opacity="0.6"/>
    <circle cx="170" cy="120" r="1.5" fill="white" opacity="0.6"/>
    <circle cx="50" cy="180" r="1" fill="white" opacity="0.5"/>
    <circle cx="200" cy="50" r="1" fill="white" opacity="0.5"/>
    <g style="filter: drop-shadow(0 0 8px rgba(255, 255, 255, 0.3));">
        <svg xmlns="http://www.w3.org/2000/svg" viewBox="0 0 256 256">
  <!-- Authentic Node.js hexagonal logo -->
  <g transform="translate(128, 128)">
    <!-- Main hexagonal shape -->
    <path d="M -60 -35 L -60 35 L 0 70 L 60 35 L 60 -35 L 0 -70 Z" 
          fill="#8cc84b" stroke="#689f38" stroke-width="1" opacity="0.95" />
    
    <!-- Inner hexagonal detail -->
    <path d="M -45 -26 L -45 26 L 0 52 L 45 26 L 45 -26 L 0 -52 Z" 
          fill="none" stroke="#ffffff" stroke-width="1" opacity="0.3" />
    
    <!-- Central node symbol -->
    <circle cx="0" cy="0" r="8" fill="#ffffff" opacity="0.9" />
    <circle cx="0" cy="0" r="12" fill="none" stroke="#ffffff" stroke-width="1" opacity="0.6" />
    
    <!-- Connection lines -->
    <line x1="0" y1="-25" x2="0" y2="-12" stroke="#ffffff" stroke-width="2" opacity="0.7" />
    <line x1="0" y1="12" x2="0" y2="25" stroke="#ffffff" stroke-width="2" opacity="0.7" />
    <line x1="-22" y1="-12" x2="-12" y2="-6" stroke="#ffffff" stroke-width="2" opacity="0.7" />
    <line x1="12" y1="-6" x2="22" y2="-12" stroke="#ffffff" stroke-width="2" opacity="0.7" />
    <line x1="-22" y1="12" x2="-12" y2="6" stroke="#ffffff" stroke-width="2" opacity="0.7" />
    <line x1="12" y1="6" x2="22" y2="12" stroke="#ffffff" stroke-width="2" opacity="0.7" />
  </g>
  
  <!-- Extremely subtle glow effect (5% drift) -->
  <circle cx="128" cy="128" r="80" fill="none" stroke="#8cc84b" stroke-width="0.5" opacity="0.05" />
</svg>
    </g>
</svg>
