<svg width="256" height="256" viewBox="0 0 256 256" fill="none" xmlns="http://www.w3.org/2000/svg">
    <defs>
        <radialGradient id="grad1" cx="50%" cy="50%" r="50%" fx="50%" fy="50%">
            <stop offset="0%" style="stop-color:#1e293b;stop-opacity:1" />
            <stop offset="100%" style="stop-color:#0f172a;stop-opacity:1" />
        </radialGradient>
        <filter id="glow">
            <feGaussianBlur stdDeviation="3.5" result="coloredBlur"/>
            <feMerge>
                <feMergeNode in="coloredBlur"/>
                <feMergeNode in="SourceGraphic"/>
            </feMerge>
        </filter>
    </defs>
    <circle cx="128" cy="128" r="120" fill="url(#grad1)" filter="url(#glow)"/>
    <circle cx="128" cy="128" r="118" fill="transparent" stroke="#334155" stroke-width="2"/>
    <!-- Stars -->
    <circle cx="60" cy="70" r="3" fill="white" opacity="0.8"/>
    <circle cx="190" cy="200" r="3" fill="white" opacity="0.8"/>
    <circle cx="100" cy="210" r="2" fill="white" opacity="0.7"/>
    <circle cx="210" cy="90" r="2" fill="white" opacity="0.7"/>
    <circle cx="80" cy="150" r="1.5" fill="white" opacity="0.6"/>
    <circle cx="170" cy="120" r="1.5" fill="white" opacity="0.6"/>
    <circle cx="50" cy="180" r="1" fill="white" opacity="0.5"/>
    <circle cx="200" cy="50" r="1" fill="white" opacity="0.5"/>
    <g style="filter: drop-shadow(0 0 8px rgba(255, 255, 255, 0.3));">
        <g transform="translate(128, 128) scale(1.25) translate(-64, -64)">
  <path d="M64.2 124.9c-2.4 0-4.6-.4-6.6-1.2-7.5-3.1-12.3-9.5-12.3-17.7V84.1h-16c-3 0-5.5-2.5-5.5-5.5V54.4c0-3 2.5-5.5 5.5-5.5h16V23.7c0-3 2.5-5.5 5.5-5.5h23.2c3 0 5.5 2.5 5.5 5.5v75.2c0 8.5-5.3 15.6-13.3 17.5-1.9.4-3.8.5-5.8.5zm-21.5-40.8H27V54.4h15.7v30.2c0-.5-.2-1.1-.2-1.6zm40-75.2v75.2c0 .5.2 1.1.2 1.6V23.7H62.7v75.2c0 .2 0 .4.1.6.4-2.5 1.5-4.8 3.1-6.7 3-3.6 7.4-5.7 12.2-5.7 8.3 0 15 6.7 15 15s-6.7 15-15 15c-4.8 0-9.2-2.1-12.2-5.7-1.3-1.6-2.4-3.4-3.1-5.3h-1.6V23.7H48.2v25.2h-5.5V23.7c0-3-2.5-5.5-5.5-5.5h-1.6c-3 0-5.5 2.5-5.5 5.5v25.2h-5.5V23.7c0-3-2.5-5.5-5.5-5.5S14.1 20.7 14.1 23.7v83.1c0 3 2.5 5.5 5.5 5.5h2.1c3 0 5.5-2.5 5.5-5.5V84.1h5.5v22.1c0 3 2.5 5.5 5.5 5.5h1.6c3 0 5.5-2.5 5.5-5.5V84.1h5.5v22.1c0 9.7 7.8 17.5 17.5 17.5s17.5-7.8 17.5-17.5V23.7c0-3-2.5-5.5-5.5-5.5H80.2c-3 0-5.5 2.5-5.5 5.5v75.2c0 9.7-7.8 17.5-17.5 17.5-8.2 0-15.1-5.6-17-13.1H27V54.4h-5.5v24.2H5.5V54.4c0-3-2.5-5.5-5.5-5.5S-5.5 51.4-5.5 54.4v24.2c0 3 2.5 5.5 5.5 5.5h16v31.9c0 9.7 7.8 17.5 17.5 17.5 2.2 0 4.3-.4 6.3-1.2 6.9-2.7 11.7-9.3 11.7-16.9V23.7c0-3-2.5-5.5-5.5-5.5h-1.6c-3 0-5.5 2.5-5.5 5.5v75.2z" fill="#336791"/>
</g>
    </g>
</svg>
