<svg width="64" height="64" viewBox="0 0 64 64" xmlns="http://www.w3.org/2000/svg">
  
  <defs>
    <radialGradient id="bg-gradient" cx="50%" cy="50%" r="50%" fx="50%" fy="50%">
      <stop offset="0%" style="stop-color:#4a5568;stop-opacity:1" />
      <stop offset="100%" style="stop-color:#2d3748;stop-opacity:1" />
    </radialGradient>
    <filter id="drop-shadow" x="-50%" y="-50%" width="200%" height="200%">
      <feDropShadow dx="1" dy="1" stdDeviation="1.5" flood-color="#000000" flood-opacity="0.6"/>
    </filter>
     <filter id="glow" x="-50%" y="-50%" width="200%" height="200%">
      <feGaussianBlur stdDeviation="2" result="coloredBlur"/>
      <feMerge>
        <feMergeNode in="coloredBlur"/>
        <feMergeNode in="SourceGraphic"/>
      </feMerge>
    </filter>
  </defs>
  <circle cx="32" cy="32" r="30" fill="url(#bg-gradient)" />
  <g opacity="0.7">
    <circle cx="10" cy="20" r="1.5" fill="white" opacity="0.8"/><circle cx="55" cy="40" r="1" fill="white" opacity="0.6"/><circle cx="20" cy="50" r="0.8" fill="white" opacity="0.5"/><circle cx="45" cy="15" r="1.2" fill="white" opacity="0.7"/><circle cx="30" cy="10" r="0.5" fill="white" opacity="0.4"/><circle cx="5" cy="45" r="0.7" fill="white" opacity="0.5"/><circle cx="58" cy="12" r="0.6" fill="white" opacity="0.9"/>
  </g>
  <circle cx="32" cy="32" r="29" fill="none" stroke="#8e81f4" stroke-width="1.5" filter="url(#glow)" />

  <g filter="url(#drop-shadow)">
    <g transform="translate(16, 16) scale(0.125)">
      <path d="M124.6 224.4h-28.4V31.6h28.4M67.8 224.4H39.4V31.6h28.4m92.2 192.8H131.6V31.6h28.4M124.6 150h-28.4V80h28.4m-125.8 59.8c2.4 2.8 5.3 4.8 8.8 6s7.5 1.8 11.9 1.8c4 0 7.8-0.6 11.4-1.8s6.9-2.9 9.8-5.1c3-2.2 5.4-5 7.2-8.3s2.7-7 2.7-11.1c0-3.3-0.5-6.4-1.5-9.4c-1-3-2.5-5.8-4.5-8.3s-4.5-4.8-7.5-6.8c-3-2-6.5-3.8-10.4-5.3c-3.1-1.1-6.5-2.2-10.2-3.3c-8.8-2.6-16-5.8-21.4-9.6c-5.4-3.8-8.1-9-8.1-15.6c0-5.3 1.9-9.8 5.7-13.6c3.8-3.8 8.8-5.7 15-5.7c3.7 0 7.2 0.7 10.4 2s6.1 3.2 8.6 5.8c2.5 2.6 4.4 5.8 5.7 9.6c1.3 3.8 2 8 2 12.6h-27.9c-0.5-2.8-1.5-5-2.9-6.5c-1.4-1.5-3.3-2.3-5.6-2.3c-2.7 0-4.8 0.7-6.2 2c-1.4 1.3-2.1 3.2-2.1 5.6c0 2.5 0.7 4.6 2.2 6.3c1.5 1.7 3.8 3.2 6.9 4.6c3.1 1.4 6.7 2.7 10.7 4c8.4 2.6 15.4 5.7 20.8 9.3c5.4 3.6 8.1 8.6 8.1 15.1c0 5.4-1.6 10-4.7 13.8c-3.1 3.8-7.5 6.6-13 8.3c-5.5 1.7-11.9 2.6-19.1 2.6c-5.6 0-10.8-0.8-15.6-2.5c-4.8-1.7-9-4.2-12.5-7.5l11.1-17.3m159.2 52.1h-28.4V31.6h28.4v192.8Z" fill="#336791"/>
    </g>
  </g>
</svg>
