<svg width="256" height="256" viewBox="0 0 256 256" fill="none" xmlns="http://www.w3.org/2000/svg">
    <defs>
        <radialGradient id="grad1" cx="50%" cy="50%" r="50%" fx="50%" fy="50%">
            <stop offset="0%" style="stop-color:#1e293b;stop-opacity:1" />
            <stop offset="100%" style="stop-color:#0f172a;stop-opacity:1" />
        </radialGradient>
        <filter id="glow">
            <feGaussianBlur stdDeviation="3.5" result="coloredBlur"/>
            <feMerge>
                <feMergeNode in="coloredBlur"/>
                <feMergeNode in="SourceGraphic"/>
            </feMerge>
        </filter>
    </defs>
    <circle cx="128" cy="128" r="120" fill="url(#grad1)" filter="url(#glow)"/>
    <circle cx="128" cy="128" r="118" fill="transparent" stroke="#334155" stroke-width="2"/>
    <!-- Stars -->
    <circle cx="60" cy="70" r="3" fill="white" opacity="0.8"/>
    <circle cx="190" cy="200" r="3" fill="white" opacity="0.8"/>
    <circle cx="100" cy="210" r="2" fill="white" opacity="0.7"/>
    <circle cx="210" cy="90" r="2" fill="white" opacity="0.7"/>
    <circle cx="80" cy="150" r="1.5" fill="white" opacity="0.6"/>
    <circle cx="170" cy="120" r="1.5" fill="white" opacity="0.6"/>
    <circle cx="50" cy="180" r="1" fill="white" opacity="0.5"/>
    <circle cx="200" cy="50" r="1" fill="white" opacity="0.5"/>
    <g style="filter: drop-shadow(0 0 8px rgba(255, 255, 255, 0.3));">
        <g transform="translate(128, 128) scale(1.25) translate(-64, -64)">
  <path d="M64 0A64 64 0 1 0 64 128 64 64 0 1 0 64 0z" fill="#f7b93e"/><path d="M32.5 35.8c0-5.8 4.7-10.5 10.5-10.5h10.5c5.8 0 10.5 4.7 10.5 10.5v20.9c0 5.8-4.7 10.5-10.5 10.5h-5.2V92c0 2.9-2.4 5.2-5.2 5.2s-5.2-2.4-5.2-5.2V67.2H43c-5.8 0-10.5-4.7-10.5-10.5V35.8zm10.5 20.9h10.5V35.8H43v20.9z" fill="#fff"/><path d="M85.5 35.8c0-5.8-4.7-10.5-10.5-10.5H64.5c-5.8 0-10.5 4.7-10.5 10.5v10.5h21.1v-5.2H64.5v-5.2h10.5v10.5H53.9v10.4h21.1v-5.2H64.5v-5.2h10.5v10.5H53.9v10.5h31.6c5.8 0 10.5-4.7 10.5-10.5V35.8z" fill="#56b3b4"/>
</g>
    </g>
</svg>
