<svg width="64" height="64" viewBox="0 0 64 64" xmlns="http://www.w3.org/2000/svg">
  <circle cx="32" cy="32" r="30" fill="#2d3748" />
  <circle cx="32" cy="32" r="29" fill="none" stroke="#8e81f4" stroke-width="2" />
  <circle cx="15" cy="15" r="1.5" fill="white" opacity="0.7"/>
  <circle cx="50" cy="45" r="1" fill="white" opacity="0.5"/>
  <circle cx="48" cy="18" r="1.2" fill="white" opacity="0.6"/>
  <g transform="translate(8, 8) scale(0.18)">
    <rect width="256" height="256" fill="#242938" rx="60"/>
    <path fill="#306998" d="M128 28C70.383 28 24 74.383 24 132C24 189.617 70.383 236 128 236C185.617 236 232 189.617 232 132C232 74.383 185.617 28 128 28ZM128 220C80.383 220 40 179.617 40 132C40 84.383 80.383 44 128 44C175.617 44 216 84.383 216 132C216 179.617 175.617 220 128 220Z"/>
    <path fill="#FFD43B" d="M128 60C97.072 60 72 85.072 72 116C72 146.928 97.072 172 128 172C158.928 172 184 146.928 184 116C184 85.072 158.928 60 128 60ZM128 156C105.072 156 88 138.928 88 116C88 93.072 105.072 76 128 76C150.928 76 168 93.072 168 116C168 138.928 150.928 156 128 156Z"/>
  </g>
</svg>
