<svg width="256" height="256" viewBox="0 0 256 256" fill="none" xmlns="http://www.w3.org/2000/svg">
    <defs>
        <radialGradient id="grad1" cx="50%" cy="50%" r="50%" fx="50%" fy="50%">
            <stop offset="0%" style="stop-color:#1e293b;stop-opacity:1" />
            <stop offset="100%" style="stop-color:#0f172a;stop-opacity:1" />
        </radialGradient>
        <filter id="glow">
            <feGaussianBlur stdDeviation="3.5" result="coloredBlur"/>
            <feMerge>
                <feMergeNode in="coloredBlur"/>
                <feMergeNode in="SourceGraphic"/>
            </feMerge>
        </filter>
    </defs>
    <circle cx="128" cy="128" r="120" fill="url(#grad1)" filter="url(#glow)"/>
    <circle cx="128" cy="128" r="118" fill="transparent" stroke="#334155" stroke-width="2"/>
    <!-- Stars -->
    <circle cx="60" cy="70" r="3" fill="white" opacity="0.8"/>
    <circle cx="190" cy="200" r="3" fill="white" opacity="0.8"/>
    <circle cx="100" cy="210" r="2" fill="white" opacity="0.7"/>
    <circle cx="210" cy="90" r="2" fill="white" opacity="0.7"/>
    <circle cx="80" cy="150" r="1.5" fill="white" opacity="0.6"/>
    <circle cx="170" cy="120" r="1.5" fill="white" opacity="0.6"/>
    <circle cx="50" cy="180" r="1" fill="white" opacity="0.5"/>
    <circle cx="200" cy="50" r="1" fill="white" opacity="0.5"/>
    <g style="filter: drop-shadow(0 0 8px rgba(255, 255, 255, 0.3));">
        <g transform="translate(128, 128) scale(1.25) translate(-64, -64)">
  <path d="M63.3 128H29.1C13.1 128 0 114.9 0 98.9v-26c0-11.4 6.7-21.7 16.9-26.2V31.1C16.9 13.9 30 0 47.1 0h16.2c11.4 0 21.7 6.7 26.2 16.9h16.2c17.1 0 30.2 13.1 30.2 29.1v34.2c0 16-13.1 29.1-29.1 29.1H98.9c0 11.4-6.7 21.7-16.9 26.2A28.7 28.7 0 0 1 63.3 128z" fill="#3776ab"/><path d="M64.7 0h34.2c16 0 29.1 13.1 29.1 29.1v34.2c0 11.4-6.7 21.7-16.9 26.2V73.3c0-17.1-13.9-30.2-31.1-30.2H63.8c-11.4 0-21.7-6.7-26.2-16.9A28.7 28.7 0 0 1 64.7 0z" fill="#ffc43d"/><path fill="#fff" d="M49 20.3a6.5 6.5 0 1 0 0 13.1 6.5 6.5 0 0 0 0-13.1zm30 74.3a6.5 6.5 0 1 0 0 13.1 6.5 6.5 0 0 0 0-13.1z"/>
</g>
    </g>
</svg>
