<svg width="256" height="256" viewBox="0 0 256 256" fill="none" xmlns="http://www.w3.org/2000/svg">
    <defs>
        <radialGradient id="grad1" cx="50%" cy="50%" r="50%" fx="50%" fy="50%">
            <stop offset="0%" style="stop-color:#1e293b;stop-opacity:1" />
            <stop offset="100%" style="stop-color:#0f172a;stop-opacity:1" />
        </radialGradient>
        <filter id="glow">
            <feGaussianBlur stdDeviation="3.5" result="coloredBlur"/>
            <feMerge>
                <feMergeNode in="coloredBlur"/>
                <feMergeNode in="SourceGraphic"/>
            </feMerge>
        </filter>
    </defs>
    <circle cx="128" cy="128" r="120" fill="url(#grad1)" filter="url(#glow)"/>
    <circle cx="128" cy="128" r="118" fill="transparent" stroke="#334155" stroke-width="2"/>
    <!-- Stars -->
    <circle cx="60" cy="70" r="3" fill="white" opacity="0.8"/>
    <circle cx="190" cy="200" r="3" fill="white" opacity="0.8"/>
    <circle cx="100" cy="210" r="2" fill="white" opacity="0.7"/>
    <circle cx="210" cy="90" r="2" fill="white" opacity="0.7"/>
    <circle cx="80" cy="150" r="1.5" fill="white" opacity="0.6"/>
    <circle cx="170" cy="120" r="1.5" fill="white" opacity="0.6"/>
    <circle cx="50" cy="180" r="1" fill="white" opacity="0.5"/>
    <circle cx="200" cy="50" r="1" fill="white" opacity="0.5"/>
    <g style="filter: drop-shadow(0 0 8px rgba(255, 255, 255, 0.3));">
        <g transform="translate(128, 128) scale(0.8) translate(-128, -128)">
  <!-- Background with subtle texture -->
  <rect width="256" height="256" rx="60" fill="#1a1a1a" opacity="0.3"/>
  
  <!-- Rust logo with authentic colors and subtle glow - centered -->
  <g filter="url(#rustGlow)" transform="translate(128, 128) translate(-64, -64)">
    <!-- Rust gear/cog shape -->
    <path d="M64 8L72 24L88 20L92 36L108 36L108 52L92 56L88 72L72 68L64 84L56 68L40 72L36 56L20 52L20 36L36 36L40 20L56 24L64 8Z" fill="#CE422B">
      <animate attributeName="fill" values="#CE422B;#E74C3C;#CE422B" dur="8s" repeatCount="indefinite"/>
    </path>
    
    <!-- Inner Rust logo -->
    <circle cx="64" cy="46" r="24" fill="#000000" opacity="0.8">
      <animate attributeName="opacity" values="0.8;0.6;0.8" dur="6s" repeatCount="indefinite"/>
    </circle>
    
    <!-- Rust "R" -->
    <path d="M52 36h8c4 0 8 2 8 6s-4 6-8 6h-4v8h-4V36zm4 8h4c2 0 4-1 4-2s-2-2-4-2h-4v4z" fill="#FFFFFF">
      <animate attributeName="fill" values="#FFFFFF;#F0F0F0;#FFFFFF" dur="4s" repeatCount="indefinite"/>
    </path>
  </g>
  
  <!-- Subtle gear teeth -->
  <g opacity="0.2">
    <rect x="124" y="60" width="8" height="4" fill="#CE422B">
      <animate attributeName="opacity" values="0.2;0.4;0.2" dur="3s" repeatCount="indefinite"/>
    </rect>
    <rect x="124" y="140" width="8" height="4" fill="#CE422B">
      <animate attributeName="opacity" values="0.2;0.4;0.2" dur="3s" begin="1s" repeatCount="indefinite"/>
    </rect>
  </g>
  
  <defs>
    <filter id="rustGlow">
      <feGaussianBlur stdDeviation="1.5" result="coloredBlur"/>
      <feMerge>
        <feMergeNode in="coloredBlur"/>
        <feMergeNode in="SourceGraphic"/>
      </feMerge>
    </filter>
  </defs>
</g>
    </g>
</svg>
