<svg width="256" height="256" viewBox="0 0 256 256" fill="none" xmlns="http://www.w3.org/2000/svg">
    <defs>
        <radialGradient id="grad1" cx="50%" cy="50%" r="50%" fx="50%" fy="50%">
            <stop offset="0%" style="stop-color:#1e293b;stop-opacity:1" />
            <stop offset="100%" style="stop-color:#0f172a;stop-opacity:1" />
        </radialGradient>
        <filter id="glow">
            <feGaussianBlur stdDeviation="3.5" result="coloredBlur"/>
            <feMerge>
                <feMergeNode in="coloredBlur"/>
                <feMergeNode in="SourceGraphic"/>
            </feMerge>
        </filter>
    </defs>
    <circle cx="128" cy="128" r="120" fill="url(#grad1)" filter="url(#glow)"/>
    <circle cx="128" cy="128" r="118" fill="transparent" stroke="#334155" stroke-width="2"/>
    <!-- Stars -->
    <circle cx="60" cy="70" r="3" fill="white" opacity="0.8"/>
    <circle cx="190" cy="200" r="3" fill="white" opacity="0.8"/>
    <circle cx="100" cy="210" r="2" fill="white" opacity="0.7"/>
    <circle cx="210" cy="90" r="2" fill="white" opacity="0.7"/>
    <circle cx="80" cy="150" r="1.5" fill="white" opacity="0.6"/>
    <circle cx="170" cy="120" r="1.5" fill="white" opacity="0.6"/>
    <circle cx="50" cy="180" r="1" fill="white" opacity="0.5"/>
    <circle cx="200" cy="50" r="1" fill="white" opacity="0.5"/>
    <g style="filter: drop-shadow(0 0 8px rgba(255, 255, 255, 0.3));">
        <g transform="translate(128, 128) scale(1.25) translate(-64, -64)">
  <path fill-rule="evenodd" clip-rule="evenodd" d="M89.8 1.4A8.5 8.5 0 0 0 81.3 0H26.7C17.2 0 8.7 8.5 8.7 18v89.3c0 .8 0 1.9.1 3.2a8.7 8.7 0 0 0 8.6 8.1H111c9.5 0 17.1-8.5 17.1-18.1V39c0-1.2-.2-2.3-.5-3.4a8.5 8.5 0 0 0-7.8-6.2L89.8 1.4zM111 109.3H26.7c-.5 0-.7-.2-.7-.7V18c0-.5.2-.7.7-.7h54.6V39c0 4.8 3.9 8.7 8.7 8.7H111v61.6zM69 57.8a5.8 5.8 0 0 1 5.8 5.8l-1.5 19.3 11.2-12.7a5.8 5.8 0 0 1 8.2 8.2L74.2 97.8a5.8 5.8 0 0 1-9.6-3.8l2.9-38a5.8 5.8 0 0 1 1.5-2.2z" fill="#ff4785"/>
</g>
    </g>
</svg>
