<svg width="256" height="256" viewBox="0 0 256 256" fill="none" xmlns="http://www.w3.org/2000/svg">
    <defs>
        <radialGradient id="grad1" cx="50%" cy="50%" r="50%" fx="50%" fy="50%">
            <stop offset="0%" style="stop-color:#1e293b;stop-opacity:1" />
            <stop offset="100%" style="stop-color:#0f172a;stop-opacity:1" />
        </radialGradient>
        <filter id="glow">
            <feGaussianBlur stdDeviation="3.5" result="coloredBlur"/>
            <feMerge>
                <feMergeNode in="coloredBlur"/>
                <feMergeNode in="SourceGraphic"/>
            </feMerge>
        </filter>
    </defs>
    <circle cx="128" cy="128" r="120" fill="url(#grad1)" filter="url(#glow)"/>
    <circle cx="128" cy="128" r="118" fill="transparent" stroke="#334155" stroke-width="2"/>
    <!-- Stars -->
    <circle cx="60" cy="70" r="3" fill="white" opacity="0.8"/>
    <circle cx="190" cy="200" r="3" fill="white" opacity="0.8"/>
    <circle cx="100" cy="210" r="2" fill="white" opacity="0.7"/>
    <circle cx="210" cy="90" r="2" fill="white" opacity="0.7"/>
    <circle cx="80" cy="150" r="1.5" fill="white" opacity="0.6"/>
    <circle cx="170" cy="120" r="1.5" fill="white" opacity="0.6"/>
    <circle cx="50" cy="180" r="1" fill="white" opacity="0.5"/>
    <circle cx="200" cy="50" r="1" fill="white" opacity="0.5"/>
    <g style="filter: drop-shadow(0 0 8px rgba(255, 255, 255, 0.3));">
        <g transform="translate(128, 128) scale(0.625) translate(-128, -128)">
  <path d="M0 0h256v256H0z" fill="#3178C6"/>
  <path d="M121.2 130.2v-1.8a21.4 21.4 0 0 1 12.5-19.9 22.4 22.4 0 0 0 10.3-19.5v-2.3c0-9.6-5.5-17.3-15.9-17.3-8.4 0-13.8 4.7-16.4 10.3l12.2 7.1c.8-2.4 2.1-4.1 4.2-4.1 2.4 0 3.9 1.4 3.9 3.9v2.3a8.5 8.5 0 0 1-5.1 7.7l-12.5 6.4v1.8a22.4 22.4 0 0 1 14.1 20.9v2.1c0 10.3-6.2 18.2-18.2 18.2-10.2 0-16.6-5.4-18.7-11.9l12.7-7.2c1.4 3.1 3 5.4 6 5.4 3 0 5-1.8 5-4.8v-2.1a9.2 9.2 0 0 1-5.8-8.3zm-36.6 24.5h14.2V73.2H84.6v81.5zm60.1-51.7h13.9v-14h-13.9v14zm0 37.6h13.9V126.7h-13.9v13.9zm0-18.8h13.9v-14h-13.9v14z" fill="#fff"/>
</g>
    </g>
</svg>
