<svg width="256" height="256" viewBox="0 0 256 256" fill="none" xmlns="http://www.w3.org/2000/svg">
    <defs>
        <radialGradient id="grad1" cx="50%" cy="50%" r="50%" fx="50%" fy="50%">
            <stop offset="0%" style="stop-color:#1e293b;stop-opacity:1" />
            <stop offset="100%" style="stop-color:#0f172a;stop-opacity:1" />
        </radialGradient>
        <filter id="glow">
            <feGaussianBlur stdDeviation="3.5" result="coloredBlur"/>
            <feMerge>
                <feMergeNode in="coloredBlur"/>
                <feMergeNode in="SourceGraphic"/>
            </feMerge>
        </filter>
    </defs>
    <circle cx="128" cy="128" r="120" fill="url(#grad1)" filter="url(#glow)"/>
    <circle cx="128" cy="128" r="118" fill="transparent" stroke="#334155" stroke-width="2"/>
    <!-- Stars -->
    <circle cx="60" cy="70" r="3" fill="white" opacity="0.8"/>
    <circle cx="190" cy="200" r="3" fill="white" opacity="0.8"/>
    <circle cx="100" cy="210" r="2" fill="white" opacity="0.7"/>
    <circle cx="210" cy="90" r="2" fill="white" opacity="0.7"/>
    <circle cx="80" cy="150" r="1.5" fill="white" opacity="0.6"/>
    <circle cx="170" cy="120" r="1.5" fill="white" opacity="0.6"/>
    <circle cx="50" cy="180" r="1" fill="white" opacity="0.5"/>
    <circle cx="200" cy="50" r="1" fill="white" opacity="0.5"/>
    <g style="filter: drop-shadow(0 0 8px rgba(255, 255, 255, 0.3));">
        <g transform="translate(128, 128) scale(0.8) translate(-128, -128)">
  <!-- Background with subtle texture -->
  <rect width="256" height="256" rx="60" fill="#1a1a1a" opacity="0.3"/>
  
  <!-- Vue.js logo with authentic colors and subtle glow -->
  <g filter="url(#vueGlow)">
    <!-- Main green triangle -->
    <path d="M204.8 0h46.4L128 230.4 4.8 0h89.6L128 76.8 161.6 0z" fill="#4FC08D">
      <animate attributeName="fill" values="#4FC08D;#45B883;#4FC08D" dur="8s" repeatCount="indefinite"/>
    </path>
    
    <!-- Dark green overlay triangle -->
    <path d="M128 76.8L94.4 0H51.2L128 153.6 204.8 0h-43.2z" fill="#35495E">
      <animate attributeName="fill" values="#35495E;#2C3E50;#35495E" dur="8s" repeatCount="indefinite"/>
    </path>
  </g>
  
  <!-- Subtle accent dots -->
  <circle cx="64" cy="64" r="2" fill="#4FC08D" opacity="0.4">
    <animate attributeName="opacity" values="0.4;0.8;0.4" dur="3s" repeatCount="indefinite"/>
  </circle>
  <circle cx="192" cy="64" r="2" fill="#4FC08D" opacity="0.4">
    <animate attributeName="opacity" values="0.4;0.8;0.4" dur="3s" begin="1s" repeatCount="indefinite"/>
  </circle>
  
  <defs>
    <filter id="vueGlow">
      <feGaussianBlur stdDeviation="1" result="coloredBlur"/>
      <feMerge>
        <feMergeNode in="coloredBlur"/>
        <feMergeNode in="SourceGraphic"/>
      </feMerge>
    </filter>
  </defs>
</g>
    </g>
</svg>
